<?xml version="1.0" standalone="no"?>
<!DOCTYPE svg PUBLIC "-//W3C//DTD SVG 1.1//EN" "http://www.w3.org/Graphics/SVG/1.1/DTD/svg11.dtd">
<svg width="100%" height="100%" viewBox="0 0 1440 300" version="1.1" xmlns="http://www.w3.org/2000/svg" xmlns:xlink="http://www.w3.org/1999/xlink" xml:space="preserve" style="fill-rule:evenodd;clip-rule:evenodd;stroke-linejoin:round;stroke-miterlimit:1.41421;">
    <g id="GRAPHIC">
        <g id="Mask">
            <rect id="path-1" x="0" y="0" width="1440" height="300" style="fill:rgb(73,73,73);"/>
        </g>
        <g id="right" transform="matrix(1,0,0,1,535,0)">
            <path id="Fill-1" d="M172,59.137L162.059,47C161.531,47.745 160.824,48.349 160,48.746L170.037,61C170.526,60.224 171.2,59.579 172,59.137" style="fill:rgb(104,102,100);"/>
            <path id="Fill-3" d="M112.784,61L122,51.892C121.225,51.428 120.579,50.777 120.126,50L111,59.019C111.752,59.517 112.366,60.2 112.784,61" style="fill:rgb(104,102,100);"/>
            <path id="Fill-5" d="M129.315,48C129.082,48.907 128.624,49.721 128,50.381L135.691,55C135.922,54.093 136.378,53.277 137,52.615L129.315,48Z" style="fill:rgb(104,102,100);"/>
            <path id="Fill-7" d="M146.496,55L155,48.083C154.293,47.543 153.724,46.828 153.356,46L145,52.798C145.668,53.386 146.186,54.141 146.496,55" style="fill:rgb(104,102,100);"/>
            <path id="Fill-9" d="M209,0L75,0L75,100L209,100L209,0ZM206.32,97.333L77.68,97.333L77.68,2.667L206.32,2.667L206.32,97.333Z" style="fill:rgb(104,102,100);"/>
            <path id="Fill-11" d="M91.751,57C91.713,57.914 91.444,58.766 91,59.501L101.322,63C101.334,62.082 101.579,61.221 102,60.475L91.751,57Z" style="fill:rgb(104,102,100);"/>
            <path id="Fill-12" d="M189.278,51L179,58.871C179.719,59.432 180.285,60.163 180.636,61L191,53.064C190.258,52.528 189.662,51.821 189.278,51" style="fill:rgb(104,102,100);"/>
            <rect id="Fill-13" x="95" y="15" width="51" height="2" style="fill:rgb(104,102,100);"/>
            <rect id="Fill-14" x="95" y="22" width="30" height="2" style="fill:rgb(104,102,100);"/>
            <path id="Fill-15" d="M158,40C159.657,40 161,41.343 161,43C161,44.657 159.657,46 158,46C156.343,46 155,44.657 155,43C155,41.343 156.343,40 158,40" style="fill:rgb(104,102,100);"/>
            <path id="Fill-16" d="M141,55C142.657,55 144,56.343 144,58C144,59.657 142.657,61 141,61C139.343,61 138,59.657 138,58C138,56.343 139.343,55 141,55" style="fill:rgb(104,102,100);"/>
            <path id="Fill-17" d="M125,44C126.657,44 128,45.343 128,47C128,48.657 126.657,50 125,50C123.343,50 122,48.657 122,47C122,45.343 123.343,44 125,44" style="fill:rgb(104,102,100);"/>
            <path id="Fill-18" d="M108,61C109.657,61 111,62.343 111,64C111,65.657 109.657,67 108,67C106.343,67 105,65.657 105,64C105,62.343 106.343,61 108,61" style="fill:rgb(104,102,100);"/>
            <path id="Fill-19" d="M86,54C87.657,54 89,55.343 89,57C89,58.657 87.657,60 86,60C84.343,60 83,58.657 83,57C83,55.343 84.343,54 86,54" style="fill:rgb(104,102,100);"/>
            <path id="Fill-20" d="M175,60C176.657,60 178,61.343 178,63C178,64.657 176.657,66 175,66C173.343,66 172,64.657 172,63C172,61.343 173.343,60 175,60" style="fill:rgb(104,102,100);"/>
            <path id="Fill-21" d="M193,46C194.657,46 196,47.343 196,49C196,50.657 194.657,52 193,52C191.343,52 190,50.657 190,49C190,47.343 191.343,46 193,46" style="fill:rgb(104,102,100);"/>
            <rect id="Fill-22" x="338" y="139" width="51" height="2" style="fill:rgb(104,102,100);"/>
            <rect id="Fill-23" x="338" y="145" width="30" height="2" style="fill:rgb(104,102,100);"/>
            <path id="Fill-24" d="M344,166C344,167.657 342.657,169 341,169C339.343,169 338,167.657 338,166C338,164.343 339.343,163 341,163C342.657,163 344,164.343 344,166" style="fill:rgb(104,102,100);"/>
            <path id="Fill-25" d="M344,176C344,177.657 342.657,179 341,179C339.343,179 338,177.657 338,176C338,174.343 339.343,173 341,173C342.657,173 344,174.343 344,176" style="fill:rgb(104,102,100);"/>
            <path id="Fill-26" d="M344,185C344,186.657 342.657,188 341,188C339.343,188 338,186.657 338,185C338,183.343 339.343,182 341,182C342.657,182 344,183.343 344,185" style="fill:rgb(104,102,100);"/>
            <path id="Fill-27" d="M344,195C344,196.657 342.657,198 341,198C339.343,198 338,196.657 338,195C338,193.343 339.343,192 341,192C342.657,192 344,193.343 344,195" style="fill:rgb(104,102,100);"/>
            <path id="Fill-28" d="M357,176C357,177.657 355.657,179 354,179C352.343,179 351,177.657 351,176C351,174.343 352.343,173 354,173C355.657,173 357,174.343 357,176" style="fill:rgb(104,102,100);"/>
            <path id="Fill-29" d="M357,185C357,186.657 355.657,188 354,188C352.343,188 351,186.657 351,185C351,183.343 352.343,182 354,182C355.657,182 357,183.343 357,185" style="fill:rgb(104,102,100);"/>
            <path id="Fill-30" d="M369,166C369,167.657 367.657,169 366,169C364.343,169 363,167.657 363,166C363,164.343 364.343,163 366,163C367.657,163 369,164.343 369,166" style="fill:rgb(104,102,100);"/>
            <path id="Fill-31" d="M369,176C369,177.657 367.657,179 366,179C364.343,179 363,177.657 363,176C363,174.343 364.343,173 366,173C367.657,173 369,174.343 369,176" style="fill:rgb(104,102,100);"/>
            <path id="Fill-32" d="M369,185C369,186.657 367.657,188 366,188C364.343,188 363,186.657 363,185C363,183.343 364.343,182 366,182C367.657,182 369,183.343 369,185" style="fill:rgb(104,102,100);"/>
            <path id="Fill-33" d="M381,176C381,177.657 379.657,179 378,179C376.343,179 375,177.657 375,176C375,174.343 376.343,173 378,173C379.657,173 381,174.343 381,176" style="fill:rgb(104,102,100);"/>
            <path id="Fill-34" d="M381,185C381,186.657 379.657,188 378,188C376.343,188 375,186.657 375,185C375,183.343 376.343,182 378,182C379.657,182 381,183.343 381,185" style="fill:rgb(104,102,100);"/>
            <path id="Fill-35" d="M381,195C381,196.657 379.657,198 378,198C376.343,198 375,196.657 375,195C375,193.343 376.343,192 378,192C379.657,192 381,193.343 381,195" style="fill:rgb(104,102,100);"/>
            <path id="Fill-36" d="M393,166C393,167.657 391.657,169 390,169C388.343,169 387,167.657 387,166C387,164.343 388.343,163 390,163C391.657,163 393,164.343 393,166" style="fill:rgb(104,102,100);"/>
            <path id="Fill-37" d="M393,156C393,157.657 391.657,159 390,159C388.343,159 387,157.657 387,156C387,154.343 388.343,153 390,153C391.657,153 393,154.343 393,156" style="fill:rgb(104,102,100);"/>
            <path id="Fill-38" d="M393,176C393,177.657 391.657,179 390,179C388.343,179 387,177.657 387,176C387,174.343 388.343,173 390,173C391.657,173 393,174.343 393,176" style="fill:rgb(104,102,100);"/>
            <path id="Fill-39" d="M393,185C393,186.657 391.657,188 390,188C388.343,188 387,186.657 387,185C387,183.343 388.343,182 390,182C391.657,182 393,183.343 393,185" style="fill:rgb(104,102,100);"/>
            <path id="Fill-40" d="M393,195C393,196.657 391.657,198 390,198C388.343,198 387,196.657 387,195C387,193.343 388.343,192 390,192C391.657,192 393,193.343 393,195" style="fill:rgb(104,102,100);"/>
            <path id="Fill-41" d="M393,204C393,205.657 391.657,207 390,207C388.343,207 387,205.657 387,204C387,202.343 388.343,201 390,201C391.657,201 393,202.343 393,204" style="fill:rgb(104,102,100);"/>
            <path id="Fill-42" d="M405,166C405,167.657 403.657,169 402,169C400.343,169 399,167.657 399,166C399,164.343 400.343,163 402,163C403.657,163 405,164.343 405,166" style="fill:rgb(104,102,100);"/>
            <path id="Fill-43" d="M405,176C405,177.657 403.657,179 402,179C400.343,179 399,177.657 399,176C399,174.343 400.343,173 402,173C403.657,173 405,174.343 405,176" style="fill:rgb(104,102,100);"/>
            <path id="Fill-44" d="M405,185C405,186.657 403.657,188 402,188C400.343,188 399,186.657 399,185C399,183.343 400.343,182 402,182C403.657,182 405,183.343 405,185" style="fill:rgb(104,102,100);"/>
            <path id="Fill-45" d="M405,195C405,196.657 403.657,198 402,198C400.343,198 399,196.657 399,195C399,193.343 400.343,192 402,192C403.657,192 405,193.343 405,195" style="fill:rgb(104,102,100);"/>
            <path id="Fill-46" d="M418,166C418,167.657 416.657,169 415,169C413.343,169 412,167.657 412,166C412,164.343 413.343,163 415,163C416.657,163 418,164.343 418,166" style="fill:rgb(104,102,100);"/>
            <path id="Fill-47" d="M418,155C418,156.657 416.657,158 415,158C413.343,158 412,156.657 412,155C412,153.343 413.343,152 415,152C416.657,152 418,153.343 418,155" style="fill:rgb(104,102,100);"/>
            <path id="Fill-48" d="M418,176C418,177.657 416.657,179 415,179C413.343,179 412,177.657 412,176C412,174.343 413.343,173 415,173C416.657,173 418,174.343 418,176" style="fill:rgb(104,102,100);"/>
            <path id="Fill-49" d="M418,185C418,186.657 416.657,188 415,188C413.343,188 412,186.657 412,185C412,183.343 413.343,182 415,182C416.657,182 418,183.343 418,185" style="fill:rgb(104,102,100);"/>
            <path id="Fill-50" d="M430,166C430,167.657 428.657,169 427,169C425.343,169 424,167.657 424,166C424,164.343 425.343,163 427,163C428.657,163 430,164.343 430,166" style="fill:rgb(104,102,100);"/>
            <path id="Fill-51" d="M430,176C430,177.657 428.657,179 427,179C425.343,179 424,177.657 424,176C424,174.343 425.343,173 427,173C428.657,173 430,174.343 430,176" style="fill:rgb(104,102,100);"/>
            <path id="Fill-52" d="M452,124L318,124L318,224L452,224L452,124ZM449.32,221.333L320.68,221.333L320.68,126.667L449.32,126.667L449.32,221.333Z" style="fill:rgb(104,102,100);"/>
            <rect id="Fill-53" x="252" y="15" width="51" height="2" style="fill:rgb(104,102,100);"/>
            <rect id="Fill-54" x="252" y="80" width="104" height="2" style="fill:rgb(104,102,100);"/>
            <rect id="Fill-55" x="252" y="33" width="2" height="50" style="fill:rgb(104,102,100);"/>
            <rect id="Fill-56" x="252" y="22" width="30" height="2" style="fill:rgb(104,102,100);"/>
            <path id="Fill-57" d="M299,52C299,53.657 297.657,55 296,55C294.343,55 293,53.657 293,52C293,50.343 294.343,49 296,49C297.657,49 299,50.343 299,52" style="fill:rgb(104,102,100);"/>
            <path id="Fill-58" d="M297,41C297,42.657 295.657,44 294,44C292.343,44 291,42.657 291,41C291,39.343 292.343,38 294,38C295.657,38 297,39.343 297,41" style="fill:rgb(104,102,100);"/>
            <path id="Fill-59" d="M313,47C313,48.657 311.657,50 310,50C308.343,50 307,48.657 307,47C307,45.343 308.343,44 310,44C311.657,44 313,45.343 313,47" style="fill:rgb(104,102,100);"/>
            <path id="Fill-60" d="M314,64C314,65.657 312.657,67 311,67C309.343,67 308,65.657 308,64C308,62.343 309.343,61 311,61C312.657,61 314,62.343 314,64" style="fill:rgb(104,102,100);"/>
            <path id="Fill-61" d="M323,33C323,34.657 321.657,36 320,36C318.343,36 317,34.657 317,33C317,31.343 318.343,30 320,30C321.657,30 323,31.343 323,33" style="fill:rgb(104,102,100);"/>
            <path id="Fill-62" d="M331,52C331,53.657 329.657,55 328,55C326.343,55 325,53.657 325,52C325,50.343 326.343,49 328,49C329.657,49 331,50.343 331,52" style="fill:rgb(104,102,100);"/>
            <path id="Fill-63" d="M334,66C334,67.657 332.657,69 331,69C329.343,69 328,67.657 328,66C328,64.343 329.343,63 331,63C332.657,63 334,64.343 334,66" style="fill:rgb(104,102,100);"/>
            <path id="Fill-64" d="M338,41C338,42.657 336.657,44 335,44C333.343,44 332,42.657 332,41C332,39.343 333.343,38 335,38C336.657,38 338,39.343 338,41" style="fill:rgb(104,102,100);"/>
            <path id="Fill-65" d="M280,50C280,51.657 278.657,53 277,53C275.343,53 274,51.657 274,50C274,48.343 275.343,47 277,47C278.657,47 280,48.343 280,50" style="fill:rgb(104,102,100);"/>
            <path id="Fill-66" d="M288,63C288,64.657 286.657,66 285,66C283.343,66 282,64.657 282,63C282,61.343 283.343,60 285,60C286.657,60 288,61.343 288,63" style="fill:rgb(104,102,100);"/>
            <path id="Fill-67" d="M268,63C268,64.657 266.657,66 265,66C263.343,66 262,64.657 262,63C262,61.343 263.343,60 265,60C266.657,60 268,61.343 268,63" style="fill:rgb(104,102,100);"/>
            <path id="Fill-68" d="M347,54C347,55.657 345.657,57 344,57C342.343,57 341,55.657 341,54C341,52.343 342.343,51 344,51C345.657,51 347,52.343 347,54" style="fill:rgb(104,102,100);"/>
            <path id="Fill-69" d="M263,48C263,49.657 261.657,51 260,51C258.343,51 257,49.657 257,48C257,46.343 258.343,45 260,45C261.657,45 263,46.343 263,48" style="fill:rgb(104,102,100);"/>
            <path id="Fill-70" d="M366,0L232,0L232,100L366,100L366,0ZM363.32,97.333L234.68,97.333L234.68,2.667L363.32,2.667L363.32,97.333Z" style="fill:rgb(104,102,100);"/>
            <rect id="Fill-71" x="176" y="142" width="36" height="2" style="fill:rgb(104,102,100);"/>
            <rect id="Fill-72" x="176" y="148" width="22" height="2" style="fill:rgb(104,102,100);"/>
            <rect id="Fill-73" x="176" y="162" width="63" height="6" style="fill:rgb(104,102,100);"/>
            <rect id="Fill-74" x="176" y="172" width="95" height="6" style="fill:rgb(104,102,100);"/>
            <rect id="Fill-75" x="176" y="182" width="77" height="6" style="fill:rgb(104,102,100);"/>
            <rect id="Fill-76" x="176" y="192" width="59" height="6" style="fill:rgb(104,102,100);"/>
            <rect id="Fill-77" x="176" y="202" width="72" height="6" style="fill:rgb(104,102,100);"/>
            <path id="Fill-78" d="M292,122L158,122L158,222L292,222L292,122ZM289.32,219.333L160.68,219.333L160.68,124.667L289.32,124.667L289.32,219.333Z" style="fill:rgb(104,102,100);"/>
            <rect id="Fill-79" x="20" y="142" width="51" height="2" style="fill:rgb(104,102,100);"/>
            <rect id="Fill-80" x="20" y="148" width="30" height="2" style="fill:rgb(104,102,100);"/>
            <rect id="Fill-81" x="20" y="179" width="6" height="26" style="fill:rgb(104,102,100);"/>
            <rect id="Fill-82" x="30" y="185" width="6" height="20" style="fill:rgb(104,102,100);"/>
            <rect id="Fill-83" x="40" y="168" width="6" height="37" style="fill:rgb(104,102,100);"/>
            <rect id="Fill-84" x="100" y="168" width="6" height="37" style="fill:rgb(104,102,100);"/>
            <rect id="Fill-85" x="91" y="155" width="6" height="51" style="fill:rgb(104,102,100);"/>
            <rect id="Fill-86" x="80" y="168" width="6" height="37" style="fill:rgb(104,102,100);"/>
            <rect id="Fill-87" x="51" y="175" width="6" height="30" style="fill:rgb(104,102,100);"/>
            <rect id="Fill-88" x="71" y="175" width="6" height="30" style="fill:rgb(104,102,100);"/>
            <rect id="Fill-89" x="111" y="175" width="6" height="30" style="fill:rgb(104,102,100);"/>
            <rect id="Fill-90" x="60" y="182" width="6" height="23" style="fill:rgb(104,102,100);"/>
            <path id="Fill-91" d="M134,122L0,122L0,222L134,222L134,122ZM131.32,219.333L2.68,219.333L2.68,124.667L131.32,124.667L131.32,219.333Z" style="fill:rgb(104,102,100);"/>
            <path id="Fill-92" d="M514,244L380,244L380,344L514,344L514,244ZM511.32,341.333L382.68,341.333L382.68,246.667L511.32,246.667L511.32,341.333Z" style="fill:rgb(104,102,100);"/>
            <rect id="Fill-93" x="401" y="263" width="51" height="2" style="fill:rgb(104,102,100);"/>
            <rect id="Fill-94" x="401" y="270" width="30" height="2" style="fill:rgb(104,102,100);"/>
            <rect id="Fill-95" x="437" y="297" width="25" height="30" style="fill:rgb(104,102,100);"/>
            <rect id="Fill-96" x="401" y="282" width="25" height="44" style="fill:rgb(104,102,100);"/>
            <path id="Fill-98" d="M525,1L391,1L391,101L525,101L525,1ZM522.32,98.333L393.68,98.333L393.68,3.667L522.32,3.667L522.32,98.333Z" style="fill:rgb(104,102,100);"/>
            <rect id="Fill-99" x="411" y="22" width="36" height="2" style="fill:rgb(104,102,100);"/>
            <rect id="Fill-100" x="411" y="27" width="22" height="2" style="fill:rgb(104,102,100);"/>
            <rect id="Fill-101" x="411" y="41" width="12" height="6" style="fill:rgb(104,102,100);"/>
            <rect id="Fill-102" x="425" y="41" width="18" height="6" style="fill:rgb(104,102,100);"/>
            <rect id="Fill-103" x="445" y="41" width="8" height="6" style="fill:rgb(104,102,100);"/>
            <rect id="Fill-104" x="455" y="41" width="19" height="6" style="fill:rgb(104,102,100);"/>
            <rect id="Fill-105" x="476" y="41" width="38" height="6" style="fill:rgb(104,102,100);"/>
            <rect id="Fill-106" x="411" y="51" width="10" height="6" style="fill:rgb(104,102,100);"/>
            <rect id="Fill-107" x="423" y="51" width="14" height="6" style="fill:rgb(104,102,100);"/>
            <rect id="Fill-108" x="439" y="51" width="10" height="6" style="fill:rgb(104,102,100);"/>
            <rect id="Fill-109" x="451" y="51" width="29" height="6" style="fill:rgb(104,102,100);"/>
            <rect id="Fill-110" x="411" y="61" width="7" height="6" style="fill:rgb(104,102,100);"/>
            <rect id="Fill-111" x="420" y="61" width="10" height="6" style="fill:rgb(104,102,100);"/>
            <rect id="Fill-112" x="432" y="61" width="25" height="6" style="fill:rgb(104,102,100);"/>
            <rect id="Fill-113" x="411" y="71" width="6" height="6" style="fill:rgb(104,102,100);"/>
            <rect id="Fill-114" x="419" y="71" width="8" height="6" style="fill:rgb(104,102,100);"/>
            <rect id="Fill-115" x="428" y="71" width="18" height="6" style="fill:rgb(104,102,100);"/>
            <rect id="Fill-116" x="411" y="82" width="5" height="6" style="fill:rgb(104,102,100);"/>
            <rect id="Fill-117" x="417" y="82" width="8" height="6" style="fill:rgb(104,102,100);"/>
            <rect id="Fill-118" x="427" y="82" width="15" height="6" style="fill:rgb(104,102,100);"/>
            <rect id="Fill-119" x="243" y="289" width="14" height="2" style="fill:rgb(104,102,100);"/>
            <rect id="Fill-120" x="323" y="288" width="14" height="2" style="fill:rgb(104,102,100);"/>
            <rect id="Fill-122" x="243" y="260" width="51" height="2" style="fill:rgb(104,102,100);"/>
            <rect id="Fill-123" x="243" y="266" width="30" height="2" style="fill:rgb(104,102,100);"/>
            <path id="Fill-124" d="M357,245L223,245L223,345L357,345L357,245ZM354.32,342.333L225.68,342.333L225.68,247.667L354.32,247.667L354.32,342.333Z" style="fill:rgb(104,102,100);"/>
            <path id="Fill-125" d="M291,279L291,298L310,298C310,287.507 301.493,279 291,279" style="fill:rgb(104,102,100);"/>
            <path id="Fill-127" d="M287.92,301.383L287.92,280C276.346,280.123 267,289.697 267,301.497C267,313.373 276.466,323 288.143,323C293.936,323 299.182,320.63 303,316.793L287.92,301.383Z" style="fill:rgb(104,102,100);"/>
            <path id="Fill-128" d="M104.609,301L113,294.238C112.276,293.657 111.694,292.889 111.319,292L103,298.703C103.705,299.308 104.262,300.097 104.609,301" style="fill:rgb(104,102,100);"/>
            <path id="Fill-129" d="M121.542,290C121.544,290.061 121.551,290.121 121.551,290.183C121.551,291.003 121.349,291.775 121,292.46L127.335,294C127.346,293.116 127.587,292.288 128,291.569L121.542,290Z" style="fill:rgb(104,102,100);"/>
            <path id="Fill-130" d="M137.603,291L146,284.149C145.297,283.592 144.731,282.855 144.366,282L136,288.825C136.694,289.394 137.251,290.138 137.603,291" style="fill:rgb(104,102,100);"/>
            <path id="Fill-131" d="M154.432,282C154.171,282.885 153.673,283.678 153,284.318L161.577,289C161.834,288.114 162.329,287.318 163,286.677L154.432,282Z" style="fill:rgb(104,102,100);"/>
            <path id="Fill-132" d="M170.987,287L181,276.8C180.183,276.375 179.491,275.752 178.988,275L169,285.174C169.812,285.609 170.494,286.241 170.987,287" style="fill:rgb(104,102,100);"/>
            <rect id="Fill-138" x="86" y="258" width="51" height="2" style="fill:rgb(104,102,100);"/>
            <rect id="Fill-139" x="86" y="265" width="30" height="2" style="fill:rgb(104,102,100);"/>
            <path id="Fill-140" d="M200,243L66,243L66,343L200,343L200,243ZM197.32,340.333L68.68,340.333L68.68,245.667L197.32,245.667L197.32,340.333Z" style="fill:rgb(104,102,100);"/>
            <path id="Fill-151" d="M99,298C100.657,298 102,299.343 102,301C102,302.657 100.657,304 99,304C97.343,304 96,302.657 96,301C96,299.343 97.343,298 99,298" style="fill:rgb(104,102,100);"/>
            <path id="Fill-152" d="M116,286C117.657,286 119,287.343 119,289C119,290.657 117.657,292 116,292C114.343,292 113,290.657 113,289C113,287.343 114.343,286 116,286" style="fill:rgb(104,102,100);"/>
            <path id="Fill-153" d="M133,290C134.657,290 136,291.343 136,293C136,294.657 134.657,296 133,296C131.343,296 130,294.657 130,293C130,291.343 131.343,290 133,290" style="fill:rgb(104,102,100);"/>
            <path id="Fill-154" d="M149,277C150.657,277 152,278.343 152,280C152,281.657 150.657,283 149,283C147.343,283 146,281.657 146,280C146,278.343 147.343,277 149,277" style="fill:rgb(104,102,100);"/>
            <path id="Fill-155" d="M167,287C168.657,287 170,288.343 170,290C170,291.657 168.657,293 167,293C165.343,293 164,291.657 164,290C164,288.343 165.343,287 167,287" style="fill:rgb(104,102,100);"/>
            <path id="Fill-156" d="M183,269C184.657,269 186,270.343 186,272C186,273.657 184.657,275 183,275C181.343,275 180,273.657 180,272C180,270.343 181.343,269 183,269" style="fill:rgb(104,102,100);"/>
            <path id="Fill-157" d="M652,59.137L642.059,47C641.531,47.745 640.824,48.349 640,48.746L650.037,61C650.526,60.224 651.2,59.579 652,59.137" style="fill:rgb(104,102,100);"/>
            <path id="Fill-158" d="M591.784,61L601,51.892C600.225,51.428 599.579,50.777 599.126,50L590,59.019C590.752,59.517 591.366,60.2 591.784,61" style="fill:rgb(104,102,100);"/>
            <path id="Fill-159" d="M609.315,48C609.082,48.907 608.624,49.721 608,50.381L615.691,55C615.922,54.093 616.378,53.277 617,52.615L609.315,48Z" style="fill:rgb(104,102,100);"/>
            <path id="Fill-160" d="M626.496,55L635,48.083C634.293,47.543 633.724,46.828 633.356,46L625,52.798C625.668,53.386 626.186,54.141 626.496,55" style="fill:rgb(104,102,100);"/>
            <path id="Fill-161" d="M688,0L554,0L554,100L688,100L688,0ZM685.32,97.333L556.68,97.333L556.68,2.667L685.32,2.667L685.32,97.333Z" style="fill:rgb(104,102,100);"/>
            <path id="Fill-162" d="M571.751,57C571.713,57.914 571.444,58.766 571,59.501L581.322,63C581.334,62.082 581.579,61.221 582,60.475L571.751,57Z" style="fill:rgb(104,102,100);"/>
            <path id="Fill-163" d="M669.278,51L659,58.871C659.719,59.432 660.285,60.163 660.636,61L671,53.064C670.258,52.528 669.662,51.821 669.278,51" style="fill:rgb(104,102,100);"/>
            <rect id="Fill-164" x="574" y="15" width="51" height="2" style="fill:rgb(104,102,100);"/>
            <rect id="Fill-165" x="574" y="22" width="30" height="2" style="fill:rgb(104,102,100);"/>
            <path id="Fill-166" d="M637,40C638.657,40 640,41.343 640,43C640,44.657 638.657,46 637,46C635.343,46 634,44.657 634,43C634,41.343 635.343,40 637,40" style="fill:rgb(104,102,100);"/>
            <path id="Fill-167" d="M621,55C622.657,55 624,56.343 624,58C624,59.657 622.657,61 621,61C619.343,61 618,59.657 618,58C618,56.343 619.343,55 621,55" style="fill:rgb(104,102,100);"/>
            <path id="Fill-168" d="M605,44C606.657,44 608,45.343 608,47C608,48.657 606.657,50 605,50C603.343,50 602,48.657 602,47C602,45.343 603.343,44 605,44" style="fill:rgb(104,102,100);"/>
            <path id="Fill-169" d="M588,61C589.657,61 591,62.343 591,64C591,65.657 589.657,67 588,67C586.343,67 585,65.657 585,64C585,62.343 586.343,61 588,61" style="fill:rgb(104,102,100);"/>
            <path id="Fill-170" d="M566,54C567.657,54 569,55.343 569,57C569,58.657 567.657,60 566,60C564.343,60 563,58.657 563,57C563,55.343 564.343,54 566,54" style="fill:rgb(104,102,100);"/>
            <path id="Fill-171" d="M654,60C655.657,60 657,61.343 657,63C657,64.657 655.657,66 654,66C652.343,66 651,64.657 651,63C651,61.343 652.343,60 654,60" style="fill:rgb(104,102,100);"/>
            <path id="Fill-172" d="M673,46C674.657,46 676,47.343 676,49C676,50.657 674.657,52 673,52C671.343,52 670,50.657 670,49C670,47.343 671.343,46 673,46" style="fill:rgb(104,102,100);"/>
            <rect id="Fill-173" x="817" y="139" width="51" height="2" style="fill:rgb(104,102,100);"/>
            <rect id="Fill-174" x="817" y="145" width="30" height="2" style="fill:rgb(104,102,100);"/>
            <path id="Fill-175" d="M824,166C824,167.657 822.657,169 821,169C819.343,169 818,167.657 818,166C818,164.343 819.343,163 821,163C822.657,163 824,164.343 824,166" style="fill:rgb(104,102,100);"/>
            <path id="Fill-176" d="M824,176C824,177.657 822.657,179 821,179C819.343,179 818,177.657 818,176C818,174.343 819.343,173 821,173C822.657,173 824,174.343 824,176" style="fill:rgb(104,102,100);"/>
            <path id="Fill-177" d="M824,185C824,186.657 822.657,188 821,188C819.343,188 818,186.657 818,185C818,183.343 819.343,182 821,182C822.657,182 824,183.343 824,185" style="fill:rgb(104,102,100);"/>
            <path id="Fill-178" d="M824,195C824,196.657 822.657,198 821,198C819.343,198 818,196.657 818,195C818,193.343 819.343,192 821,192C822.657,192 824,193.343 824,195" style="fill:rgb(104,102,100);"/>
            <path id="Fill-179" d="M836,176C836,177.657 834.657,179 833,179C831.343,179 830,177.657 830,176C830,174.343 831.343,173 833,173C834.657,173 836,174.343 836,176" style="fill:rgb(104,102,100);"/>
            <path id="Fill-180" d="M836,185C836,186.657 834.657,188 833,188C831.343,188 830,186.657 830,185C830,183.343 831.343,182 833,182C834.657,182 836,183.343 836,185" style="fill:rgb(104,102,100);"/>
            <path id="Fill-181" d="M848,166C848,167.657 846.657,169 845,169C843.343,169 842,167.657 842,166C842,164.343 843.343,163 845,163C846.657,163 848,164.343 848,166" style="fill:rgb(104,102,100);"/>
            <path id="Fill-182" d="M848,176C848,177.657 846.657,179 845,179C843.343,179 842,177.657 842,176C842,174.343 843.343,173 845,173C846.657,173 848,174.343 848,176" style="fill:rgb(104,102,100);"/>
            <path id="Fill-183" d="M848,185C848,186.657 846.657,188 845,188C843.343,188 842,186.657 842,185C842,183.343 843.343,182 845,182C846.657,182 848,183.343 848,185" style="fill:rgb(104,102,100);"/>
            <path id="Fill-184" d="M861,176C861,177.657 859.657,179 858,179C856.343,179 855,177.657 855,176C855,174.343 856.343,173 858,173C859.657,173 861,174.343 861,176" style="fill:rgb(104,102,100);"/>
            <path id="Fill-185" d="M861,185C861,186.657 859.657,188 858,188C856.343,188 855,186.657 855,185C855,183.343 856.343,182 858,182C859.657,182 861,183.343 861,185" style="fill:rgb(104,102,100);"/>
            <path id="Fill-186" d="M861,195C861,196.657 859.657,198 858,198C856.343,198 855,196.657 855,195C855,193.343 856.343,192 858,192C859.657,192 861,193.343 861,195" style="fill:rgb(104,102,100);"/>
            <path id="Fill-187" d="M873,166C873,167.657 871.657,169 870,169C868.343,169 867,167.657 867,166C867,164.343 868.343,163 870,163C871.657,163 873,164.343 873,166" style="fill:rgb(104,102,100);"/>
            <path id="Fill-188" d="M873,156C873,157.657 871.657,159 870,159C868.343,159 867,157.657 867,156C867,154.343 868.343,153 870,153C871.657,153 873,154.343 873,156" style="fill:rgb(104,102,100);"/>
            <path id="Fill-189" d="M873,176C873,177.657 871.657,179 870,179C868.343,179 867,177.657 867,176C867,174.343 868.343,173 870,173C871.657,173 873,174.343 873,176" style="fill:rgb(104,102,100);"/>
            <path id="Fill-190" d="M873,185C873,186.657 871.657,188 870,188C868.343,188 867,186.657 867,185C867,183.343 868.343,182 870,182C871.657,182 873,183.343 873,185" style="fill:rgb(104,102,100);"/>
            <path id="Fill-191" d="M873,195C873,196.657 871.657,198 870,198C868.343,198 867,196.657 867,195C867,193.343 868.343,192 870,192C871.657,192 873,193.343 873,195" style="fill:rgb(104,102,100);"/>
            <path id="Fill-192" d="M873,204C873,205.657 871.657,207 870,207C868.343,207 867,205.657 867,204C867,202.343 868.343,201 870,201C871.657,201 873,202.343 873,204" style="fill:rgb(104,102,100);"/>
            <path id="Fill-193" d="M885,166C885,167.657 883.657,169 882,169C880.343,169 879,167.657 879,166C879,164.343 880.343,163 882,163C883.657,163 885,164.343 885,166" style="fill:rgb(104,102,100);"/>
            <path id="Fill-194" d="M885,176C885,177.657 883.657,179 882,179C880.343,179 879,177.657 879,176C879,174.343 880.343,173 882,173C883.657,173 885,174.343 885,176" style="fill:rgb(104,102,100);"/>
            <path id="Fill-195" d="M885,185C885,186.657 883.657,188 882,188C880.343,188 879,186.657 879,185C879,183.343 880.343,182 882,182C883.657,182 885,183.343 885,185" style="fill:rgb(104,102,100);"/>
            <path id="Fill-196" d="M885,195C885,196.657 883.657,198 882,198C880.343,198 879,196.657 879,195C879,193.343 880.343,192 882,192C883.657,192 885,193.343 885,195" style="fill:rgb(104,102,100);"/>
            <path id="Fill-197" d="M898,166C898,167.657 896.657,169 895,169C893.343,169 892,167.657 892,166C892,164.343 893.343,163 895,163C896.657,163 898,164.343 898,166" style="fill:rgb(104,102,100);"/>
            <path id="Fill-198" d="M898,155C898,156.657 896.657,158 895,158C893.343,158 892,156.657 892,155C892,153.343 893.343,152 895,152C896.657,152 898,153.343 898,155" style="fill:rgb(104,102,100);"/>
            <path id="Fill-199" d="M898,176C898,177.657 896.657,179 895,179C893.343,179 892,177.657 892,176C892,174.343 893.343,173 895,173C896.657,173 898,174.343 898,176" style="fill:rgb(104,102,100);"/>
            <path id="Fill-200" d="M898,185C898,186.657 896.657,188 895,188C893.343,188 892,186.657 892,185C892,183.343 893.343,182 895,182C896.657,182 898,183.343 898,185" style="fill:rgb(104,102,100);"/>
            <path id="Fill-201" d="M910,166C910,167.657 908.657,169 907,169C905.343,169 904,167.657 904,166C904,164.343 905.343,163 907,163C908.657,163 910,164.343 910,166" style="fill:rgb(104,102,100);"/>
            <path id="Fill-202" d="M910,176C910,177.657 908.657,179 907,179C905.343,179 904,177.657 904,176C904,174.343 905.343,173 907,173C908.657,173 910,174.343 910,176" style="fill:rgb(104,102,100);"/>
            <path id="Fill-203" d="M931,124L797,124L797,224L931,224L931,124ZM928.32,221.333L799.68,221.333L799.68,126.667L928.32,126.667L928.32,221.333Z" style="fill:rgb(104,102,100);"/>
            <rect id="Fill-204" x="731" y="15" width="51" height="2" style="fill:rgb(104,102,100);"/>
            <rect id="Fill-205" x="731" y="80" width="104" height="2" style="fill:rgb(104,102,100);"/>
            <rect id="Fill-206" x="731" y="33" width="2" height="50" style="fill:rgb(104,102,100);"/>
            <rect id="Fill-207" x="731" y="22" width="30" height="2" style="fill:rgb(104,102,100);"/>
            <path id="Fill-208" d="M778,52C778,53.657 776.657,55 775,55C773.343,55 772,53.657 772,52C772,50.343 773.343,49 775,49C776.657,49 778,50.343 778,52" style="fill:rgb(104,102,100);"/>
            <path id="Fill-209" d="M777,41C777,42.657 775.657,44 774,44C772.343,44 771,42.657 771,41C771,39.343 772.343,38 774,38C775.657,38 777,39.343 777,41" style="fill:rgb(104,102,100);"/>
            <path id="Fill-210" d="M793,47C793,48.657 791.657,50 790,50C788.343,50 787,48.657 787,47C787,45.343 788.343,44 790,44C791.657,44 793,45.343 793,47" style="fill:rgb(104,102,100);"/>
            <path id="Fill-211" d="M794,64C794,65.657 792.657,67 791,67C789.343,67 788,65.657 788,64C788,62.343 789.343,61 791,61C792.657,61 794,62.343 794,64" style="fill:rgb(104,102,100);"/>
            <path id="Fill-212" d="M802,33C802,34.657 800.657,36 799,36C797.343,36 796,34.657 796,33C796,31.343 797.343,30 799,30C800.657,30 802,31.343 802,33" style="fill:rgb(104,102,100);"/>
            <path id="Fill-213" d="M810,52C810,53.657 808.657,55 807,55C805.343,55 804,53.657 804,52C804,50.343 805.343,49 807,49C808.657,49 810,50.343 810,52" style="fill:rgb(104,102,100);"/>
            <path id="Fill-214" d="M814,66C814,67.657 812.657,69 811,69C809.343,69 808,67.657 808,66C808,64.343 809.343,63 811,63C812.657,63 814,64.343 814,66" style="fill:rgb(104,102,100);"/>
            <path id="Fill-215" d="M818,41C818,42.657 816.657,44 815,44C813.343,44 812,42.657 812,41C812,39.343 813.343,38 815,38C816.657,38 818,39.343 818,41" style="fill:rgb(104,102,100);"/>
            <path id="Fill-216" d="M759,50C759,51.657 757.657,53 756,53C754.343,53 753,51.657 753,50C753,48.343 754.343,47 756,47C757.657,47 759,48.343 759,50" style="fill:rgb(104,102,100);"/>
            <path id="Fill-217" d="M768,63C768,64.657 766.657,66 765,66C763.343,66 762,64.657 762,63C762,61.343 763.343,60 765,60C766.657,60 768,61.343 768,63" style="fill:rgb(104,102,100);"/>
            <path id="Fill-218" d="M748,63C748,64.657 746.657,66 745,66C743.343,66 742,64.657 742,63C742,61.343 743.343,60 745,60C746.657,60 748,61.343 748,63" style="fill:rgb(104,102,100);"/>
            <path id="Fill-219" d="M827,54C827,55.657 825.657,57 824,57C822.343,57 821,55.657 821,54C821,52.343 822.343,51 824,51C825.657,51 827,52.343 827,54" style="fill:rgb(104,102,100);"/>
            <path id="Fill-220" d="M743,48C743,49.657 741.657,51 740,51C738.343,51 737,49.657 737,48C737,46.343 738.343,45 740,45C741.657,45 743,46.343 743,48" style="fill:rgb(104,102,100);"/>
            <path id="Fill-221" d="M845,0L711,0L711,100L845,100L845,0ZM842.32,97.333L713.68,97.333L713.68,2.667L842.32,2.667L842.32,97.333Z" style="fill:rgb(104,102,100);"/>
            <rect id="Fill-222" x="656" y="142" width="36" height="2" style="fill:rgb(104,102,100);"/>
            <rect id="Fill-223" x="656" y="148" width="22" height="2" style="fill:rgb(104,102,100);"/>
            <rect id="Fill-224" x="656" y="162" width="63" height="6" style="fill:rgb(104,102,100);"/>
            <rect id="Fill-225" x="656" y="172" width="95" height="6" style="fill:rgb(104,102,100);"/>
            <rect id="Fill-226" x="656" y="182" width="77" height="6" style="fill:rgb(104,102,100);"/>
            <rect id="Fill-227" x="656" y="192" width="59" height="6" style="fill:rgb(104,102,100);"/>
            <rect id="Fill-228" x="656" y="202" width="72" height="6" style="fill:rgb(104,102,100);"/>
            <path id="Fill-229" d="M772,122L638,122L638,222L772,222L772,122ZM769.32,219.333L640.68,219.333L640.68,124.667L769.32,124.667L769.32,219.333Z" style="fill:rgb(104,102,100);"/>
            <rect id="Fill-230" x="500" y="142" width="51" height="2" style="fill:rgb(104,102,100);"/>
            <rect id="Fill-231" x="500" y="148" width="30" height="2" style="fill:rgb(104,102,100);"/>
            <rect id="Fill-232" x="500" y="179" width="6" height="26" style="fill:rgb(104,102,100);"/>
            <rect id="Fill-233" x="510" y="185" width="6" height="20" style="fill:rgb(104,102,100);"/>
            <rect id="Fill-234" x="520" y="168" width="6" height="37" style="fill:rgb(104,102,100);"/>
            <rect id="Fill-235" x="581" y="168" width="6" height="37" style="fill:rgb(104,102,100);"/>
            <rect id="Fill-236" x="570" y="155" width="6" height="51" style="fill:rgb(104,102,100);"/>
            <rect id="Fill-237" x="560" y="168" width="6" height="37" style="fill:rgb(104,102,100);"/>
            <rect id="Fill-238" x="530" y="175" width="6" height="30" style="fill:rgb(104,102,100);"/>
            <rect id="Fill-239" x="550" y="175" width="6" height="30" style="fill:rgb(104,102,100);"/>
            <rect id="Fill-240" x="590" y="175" width="6" height="30" style="fill:rgb(104,102,100);"/>
            <rect id="Fill-241" x="540" y="182" width="6" height="23" style="fill:rgb(104,102,100);"/>
            <path id="Fill-242" d="M614,122L480,122L480,222L614,222L614,122ZM611.32,219.333L482.68,219.333L482.68,124.667L611.32,124.667L611.32,219.333Z" style="fill:rgb(104,102,100);"/>
            <path id="Fill-243" d="M995,244L861,244L861,344L995,344L995,244ZM992.32,341.333L863.68,341.333L863.68,246.667L992.32,246.667L992.32,341.333Z" style="fill:rgb(104,102,100);"/>
            <rect id="Fill-244" x="881" y="263" width="51" height="2" style="fill:rgb(104,102,100);"/>
            <rect id="Fill-245" x="881" y="270" width="30" height="2" style="fill:rgb(104,102,100);"/>
            <rect id="Fill-247" x="881" y="282" width="25" height="44" style="fill:rgb(104,102,100);"/>
            <path id="Fill-249" d="M1005,1L871,1L871,101L1005,101L1005,1ZM1002.32,98.333L873.68,98.333L873.68,3.667L1002.32,3.667L1002.32,98.333Z" style="fill:rgb(104,102,100);"/>
            <rect id="Fill-250" x="891" y="22" width="36" height="2" style="fill:rgb(104,102,100);"/>
            <rect id="Fill-251" x="891" y="27" width="22" height="2" style="fill:rgb(104,102,100);"/>
            <rect id="Fill-252" x="891" y="41" width="12" height="6" style="fill:rgb(104,102,100);"/>
            <rect id="Fill-257" x="891" y="51" width="10" height="6" style="fill:rgb(104,102,100);"/>
            <rect id="Fill-258" x="902" y="51" width="14" height="6" style="fill:rgb(104,102,100);"/>
            <rect id="Fill-261" x="891" y="61" width="7" height="6" style="fill:rgb(104,102,100);"/>
            <rect id="Fill-262" x="900" y="61" width="10" height="6" style="fill:rgb(104,102,100);"/>
            <rect id="Fill-264" x="891" y="71" width="6" height="6" style="fill:rgb(104,102,100);"/>
            <rect id="Fill-265" x="898" y="71" width="8" height="6" style="fill:rgb(104,102,100);"/>
            <rect id="Fill-267" x="891" y="82" width="5" height="6" style="fill:rgb(104,102,100);"/>
            <rect id="Fill-268" x="898" y="82" width="8" height="6" style="fill:rgb(104,102,100);"/>
            <rect id="Fill-270" x="723" y="289" width="14" height="2" style="fill:rgb(104,102,100);"/>
            <rect id="Fill-271" x="803" y="288" width="14" height="2" style="fill:rgb(104,102,100);"/>
            <rect id="Fill-273" x="723" y="260" width="51" height="2" style="fill:rgb(104,102,100);"/>
            <rect id="Fill-274" x="723" y="266" width="30" height="2" style="fill:rgb(104,102,100);"/>
            <path id="Fill-275" d="M837,245L703,245L703,345L837,345L837,245ZM834.32,342.333L705.68,342.333L705.68,247.667L834.32,247.667L834.32,342.333Z" style="fill:rgb(104,102,100);"/>
            <path id="Fill-276" d="M771,279L771,298L790,298C790,287.507 781.493,279 771,279" style="fill:rgb(104,102,100);"/>
            <path id="Fill-278" d="M767.92,301.383L767.92,280C756.346,280.123 747,289.697 747,301.497C747,313.373 756.467,323 768.143,323C773.936,323 779.182,320.63 783,316.793L767.92,301.383Z" style="fill:rgb(104,102,100);"/>
            <path id="Fill-279" d="M583.609,301L592,294.238C591.276,293.657 590.694,292.889 590.319,292L582,298.703C582.705,299.308 583.262,300.097 583.609,301" style="fill:rgb(104,102,100);"/>
            <path id="Fill-280" d="M601.542,290C601.544,290.061 601.551,290.121 601.551,290.183C601.551,291.003 601.349,291.775 601,292.46L607.335,294C607.346,293.116 607.587,292.288 608,291.569L601.542,290Z" style="fill:rgb(104,102,100);"/>
            <path id="Fill-281" d="M617.603,291L626,284.149C625.297,283.592 624.731,282.855 624.366,282L616,288.825C616.694,289.394 617.251,290.138 617.603,291" style="fill:rgb(104,102,100);"/>
            <path id="Fill-282" d="M634.432,282C634.171,282.885 633.673,283.678 633,284.318L641.577,289C641.834,288.114 642.329,287.318 643,286.677L634.432,282Z" style="fill:rgb(104,102,100);"/>
            <path id="Fill-283" d="M650.987,287L661,276.8C660.183,276.375 659.491,275.752 658.988,275L649,285.174C649.812,285.609 650.494,286.241 650.987,287" style="fill:rgb(104,102,100);"/>
            <rect id="Fill-289" x="565" y="258" width="51" height="2" style="fill:rgb(104,102,100);"/>
            <rect id="Fill-290" x="565" y="265" width="30" height="2" style="fill:rgb(104,102,100);"/>
            <path id="Fill-291" d="M679,243L545,243L545,343L679,343L679,243ZM676.32,340.333L547.68,340.333L547.68,245.667L676.32,245.667L676.32,340.333Z" style="fill:rgb(104,102,100);"/>
            <path id="Fill-302" d="M579,298C580.657,298 582,299.343 582,301C582,302.657 580.657,304 579,304C577.343,304 576,302.657 576,301C576,299.343 577.343,298 579,298" style="fill:rgb(104,102,100);"/>
            <path id="Fill-303" d="M596,286C597.657,286 599,287.343 599,289C599,290.657 597.657,292 596,292C594.343,292 593,290.657 593,289C593,287.343 594.343,286 596,286" style="fill:rgb(104,102,100);"/>
            <path id="Fill-304" d="M613,290C614.657,290 616,291.343 616,293C616,294.657 614.657,296 613,296C611.343,296 610,294.657 610,293C610,291.343 611.343,290 613,290" style="fill:rgb(104,102,100);"/>
            <path id="Fill-305" d="M629,277C630.657,277 632,278.343 632,280C632,281.657 630.657,283 629,283C627.343,283 626,281.657 626,280C626,278.343 627.343,277 629,277" style="fill:rgb(104,102,100);"/>
            <path id="Fill-306" d="M646,287C647.657,287 649,288.343 649,290C649,291.657 647.657,293 646,293C644.343,293 643,291.657 643,290C643,288.343 644.343,287 646,287" style="fill:rgb(104,102,100);"/>
            <path id="Fill-307" d="M663,269C664.657,269 666,270.343 666,272C666,273.657 664.657,275 663,275C661.343,275 660,273.657 660,272C660,270.343 661.343,269 663,269" style="fill:rgb(104,102,100);"/>
            <g id="Fill-501" transform="matrix(1,0,0,1,-964,0)">
                <path d="M430,166C430,167.657 428.657,169 427,169C425.343,169 424,167.657 424,166C424,164.343 425.343,163 427,163C428.657,163 430,164.343 430,166" style="fill:rgb(104,102,100);"/>
            </g>
            <g id="Fill-511" transform="matrix(1,0,0,1,-964,0)">
                <path d="M430,176C430,177.657 428.657,179 427,179C425.343,179 424,177.657 424,176C424,174.343 425.343,173 427,173C428.657,173 430,174.343 430,176" style="fill:rgb(104,102,100);"/>
            </g>
            <g id="Fill-521" transform="matrix(1,0,0,1,-964,0)">
                <path d="M452,124L318,124L318,224L452,224L452,124ZM449.32,221.333L320.68,221.333L320.68,126.667L449.32,126.667L449.32,221.333Z" style="fill:rgb(104,102,100);"/>
            </g>
            <g id="Fill-921" transform="matrix(1,0,0,1,-964,0)">
                <path d="M514,244L380,244L380,344L514,344L514,244ZM511.32,341.333L382.68,341.333L382.68,246.667L511.32,246.667L511.32,341.333Z" style="fill:rgb(104,102,100);"/>
            </g>
            <g id="Fill-931" transform="matrix(1,0,0,1,-964,0)">
                <rect x="401" y="263" width="51" height="2" style="fill:rgb(104,102,100);"/>
            </g>
            <g id="Fill-941" transform="matrix(1,0,0,1,-964,0)">
                <rect x="401" y="270" width="30" height="2" style="fill:rgb(104,102,100);"/>
            </g>
            <g id="Fill-951" transform="matrix(1,0,0,1,-964,0)">
                <rect x="437" y="297" width="25" height="30" style="fill:rgb(104,102,100);"/>
            </g>
            <g id="Fill-981" transform="matrix(1,0,0,1,-964,0)">
                <path d="M525,1L391,1L391,101L525,101L525,1ZM522.32,98.333L393.68,98.333L393.68,3.667L522.32,3.667L522.32,98.333Z" style="fill:rgb(104,102,100);"/>
            </g>
            <g id="Fill-991" transform="matrix(1,0,0,1,-964,0)">
                <rect x="411" y="22" width="36" height="2" style="fill:rgb(104,102,100);"/>
            </g>
            <g id="Fill-1001" transform="matrix(1,0,0,1,-964,0)">
                <rect x="411" y="27" width="22" height="2" style="fill:rgb(104,102,100);"/>
            </g>
            <g id="Fill-1021" transform="matrix(1,0,0,1,-964,0)">
                <rect x="425" y="41" width="18" height="6" style="fill:rgb(104,102,100);"/>
            </g>
            <g id="Fill-1031" transform="matrix(1,0,0,1,-964,0)">
                <rect x="445" y="41" width="8" height="6" style="fill:rgb(104,102,100);"/>
            </g>
            <g id="Fill-1041" transform="matrix(1,0,0,1,-964,0)">
                <rect x="455" y="41" width="19" height="6" style="fill:rgb(104,102,100);"/>
            </g>
            <g id="Fill-1051" transform="matrix(1,0,0,1,-964,0)">
                <rect x="476" y="41" width="38" height="6" style="fill:rgb(104,102,100);"/>
            </g>
            <g id="Fill-1071" transform="matrix(1,0,0,1,-964,0)">
                <rect x="423" y="51" width="14" height="6" style="fill:rgb(104,102,100);"/>
            </g>
            <g id="Fill-1081" transform="matrix(1,0,0,1,-964,0)">
                <rect x="439" y="51" width="10" height="6" style="fill:rgb(104,102,100);"/>
            </g>
            <g id="Fill-1091" transform="matrix(1,0,0,1,-964,0)">
                <rect x="451" y="51" width="29" height="6" style="fill:rgb(104,102,100);"/>
            </g>
            <g id="Fill-1111" transform="matrix(1,0,0,1,-964,0)">
                <rect x="420" y="61" width="10" height="6" style="fill:rgb(104,102,100);"/>
            </g>
            <g id="Fill-1121" transform="matrix(1,0,0,1,-964,0)">
                <rect x="432" y="61" width="25" height="6" style="fill:rgb(104,102,100);"/>
            </g>
            <g id="Fill-1151" transform="matrix(1,0,0,1,-964,0)">
                <rect x="428" y="71" width="18" height="6" style="fill:rgb(104,102,100);"/>
            </g>
            <g id="Fill-1181" transform="matrix(1,0,0,1,-964,0)">
                <rect x="427" y="82" width="15" height="6" style="fill:rgb(104,102,100);"/>
            </g>
            <g id="Fill-1571" transform="matrix(1,0,0,1,-964,0)">
                <path d="M652,59.137L642.059,47C641.531,47.745 640.824,48.349 640,48.746L650.037,61C650.526,60.224 651.2,59.579 652,59.137" style="fill:rgb(104,102,100);"/>
            </g>
            <g id="Fill-1581" transform="matrix(1,0,0,1,-964,0)">
                <path d="M591.784,61L601,51.892C600.225,51.428 599.579,50.777 599.126,50L590,59.019C590.752,59.517 591.366,60.2 591.784,61" style="fill:rgb(104,102,100);"/>
            </g>
            <g id="Fill-1591" transform="matrix(1,0,0,1,-964,0)">
                <path d="M609.315,48C609.082,48.907 608.624,49.721 608,50.381L615.691,55C615.922,54.093 616.378,53.277 617,52.615L609.315,48Z" style="fill:rgb(104,102,100);"/>
            </g>
            <g id="Fill-1601" transform="matrix(1,0,0,1,-964,0)">
                <path d="M626.496,55L635,48.083C634.293,47.543 633.724,46.828 633.356,46L625,52.798C625.668,53.386 626.186,54.141 626.496,55" style="fill:rgb(104,102,100);"/>
            </g>
            <g id="Fill-1611" transform="matrix(1,0,0,1,-964,0)">
                <path d="M688,0L554,0L554,100L688,100L688,0ZM685.32,97.333L556.68,97.333L556.68,2.667L685.32,2.667L685.32,97.333Z" style="fill:rgb(104,102,100);"/>
            </g>
            <g id="Fill-1621" transform="matrix(1,0,0,1,-964,0)">
                <path d="M571.751,57C571.713,57.914 571.444,58.766 571,59.501L581.322,63C581.334,62.082 581.579,61.221 582,60.475L571.751,57Z" style="fill:rgb(104,102,100);"/>
            </g>
            <g id="Fill-1631" transform="matrix(1,0,0,1,-964,0)">
                <path d="M669.278,51L659,58.871C659.719,59.432 660.285,60.163 660.636,61L671,53.064C670.258,52.528 669.662,51.821 669.278,51" style="fill:rgb(104,102,100);"/>
            </g>
            <g id="Fill-1641" transform="matrix(1,0,0,1,-964,0)">
                <rect x="574" y="15" width="51" height="2" style="fill:rgb(104,102,100);"/>
            </g>
            <g id="Fill-1651" transform="matrix(1,0,0,1,-964,0)">
                <rect x="574" y="22" width="30" height="2" style="fill:rgb(104,102,100);"/>
            </g>
            <g id="Fill-1661" transform="matrix(1,0,0,1,-964,0)">
                <path d="M637,40C638.657,40 640,41.343 640,43C640,44.657 638.657,46 637,46C635.343,46 634,44.657 634,43C634,41.343 635.343,40 637,40" style="fill:rgb(104,102,100);"/>
            </g>
            <g id="Fill-1671" transform="matrix(1,0,0,1,-964,0)">
                <path d="M621,55C622.657,55 624,56.343 624,58C624,59.657 622.657,61 621,61C619.343,61 618,59.657 618,58C618,56.343 619.343,55 621,55" style="fill:rgb(104,102,100);"/>
            </g>
            <g id="Fill-1681" transform="matrix(1,0,0,1,-964,0)">
                <path d="M605,44C606.657,44 608,45.343 608,47C608,48.657 606.657,50 605,50C603.343,50 602,48.657 602,47C602,45.343 603.343,44 605,44" style="fill:rgb(104,102,100);"/>
            </g>
            <g id="Fill-1691" transform="matrix(1,0,0,1,-964,0)">
                <path d="M588,61C589.657,61 591,62.343 591,64C591,65.657 589.657,67 588,67C586.343,67 585,65.657 585,64C585,62.343 586.343,61 588,61" style="fill:rgb(104,102,100);"/>
            </g>
            <g id="Fill-1701" transform="matrix(1,0,0,1,-964,0)">
                <path d="M566,54C567.657,54 569,55.343 569,57C569,58.657 567.657,60 566,60C564.343,60 563,58.657 563,57C563,55.343 564.343,54 566,54" style="fill:rgb(104,102,100);"/>
            </g>
            <g id="Fill-1711" transform="matrix(1,0,0,1,-964,0)">
                <path d="M654,60C655.657,60 657,61.343 657,63C657,64.657 655.657,66 654,66C652.343,66 651,64.657 651,63C651,61.343 652.343,60 654,60" style="fill:rgb(104,102,100);"/>
            </g>
            <g id="Fill-1721" transform="matrix(1,0,0,1,-964,0)">
                <path d="M673,46C674.657,46 676,47.343 676,49C676,50.657 674.657,52 673,52C671.343,52 670,50.657 670,49C670,47.343 671.343,46 673,46" style="fill:rgb(104,102,100);"/>
            </g>
            <g id="Fill-1731" transform="matrix(1,0,0,1,-964,0)">
                <rect x="817" y="139" width="51" height="2" style="fill:rgb(104,102,100);"/>
            </g>
            <g id="Fill-1741" transform="matrix(1,0,0,1,-964,0)">
                <rect x="817" y="145" width="30" height="2" style="fill:rgb(104,102,100);"/>
            </g>
            <g id="Fill-1751" transform="matrix(1,0,0,1,-964,0)">
                <path d="M824,166C824,167.657 822.657,169 821,169C819.343,169 818,167.657 818,166C818,164.343 819.343,163 821,163C822.657,163 824,164.343 824,166" style="fill:rgb(104,102,100);"/>
            </g>
            <g id="Fill-1761" transform="matrix(1,0,0,1,-964,0)">
                <path d="M824,176C824,177.657 822.657,179 821,179C819.343,179 818,177.657 818,176C818,174.343 819.343,173 821,173C822.657,173 824,174.343 824,176" style="fill:rgb(104,102,100);"/>
            </g>
            <g id="Fill-1771" transform="matrix(1,0,0,1,-964,0)">
                <path d="M824,185C824,186.657 822.657,188 821,188C819.343,188 818,186.657 818,185C818,183.343 819.343,182 821,182C822.657,182 824,183.343 824,185" style="fill:rgb(104,102,100);"/>
            </g>
            <g id="Fill-1781" transform="matrix(1,0,0,1,-964,0)">
                <path d="M824,195C824,196.657 822.657,198 821,198C819.343,198 818,196.657 818,195C818,193.343 819.343,192 821,192C822.657,192 824,193.343 824,195" style="fill:rgb(104,102,100);"/>
            </g>
            <g id="Fill-1791" transform="matrix(1,0,0,1,-964,0)">
                <path d="M836,176C836,177.657 834.657,179 833,179C831.343,179 830,177.657 830,176C830,174.343 831.343,173 833,173C834.657,173 836,174.343 836,176" style="fill:rgb(104,102,100);"/>
            </g>
            <g id="Fill-1801" transform="matrix(1,0,0,1,-964,0)">
                <path d="M836,185C836,186.657 834.657,188 833,188C831.343,188 830,186.657 830,185C830,183.343 831.343,182 833,182C834.657,182 836,183.343 836,185" style="fill:rgb(104,102,100);"/>
            </g>
            <g id="Fill-1811" transform="matrix(1,0,0,1,-964,0)">
                <path d="M848,166C848,167.657 846.657,169 845,169C843.343,169 842,167.657 842,166C842,164.343 843.343,163 845,163C846.657,163 848,164.343 848,166" style="fill:rgb(104,102,100);"/>
            </g>
            <g id="Fill-1821" transform="matrix(1,0,0,1,-964,0)">
                <path d="M848,176C848,177.657 846.657,179 845,179C843.343,179 842,177.657 842,176C842,174.343 843.343,173 845,173C846.657,173 848,174.343 848,176" style="fill:rgb(104,102,100);"/>
            </g>
            <g id="Fill-1831" transform="matrix(1,0,0,1,-964,0)">
                <path d="M848,185C848,186.657 846.657,188 845,188C843.343,188 842,186.657 842,185C842,183.343 843.343,182 845,182C846.657,182 848,183.343 848,185" style="fill:rgb(104,102,100);"/>
            </g>
            <g id="Fill-1841" transform="matrix(1,0,0,1,-964,0)">
                <path d="M861,176C861,177.657 859.657,179 858,179C856.343,179 855,177.657 855,176C855,174.343 856.343,173 858,173C859.657,173 861,174.343 861,176" style="fill:rgb(104,102,100);"/>
            </g>
            <g id="Fill-1851" transform="matrix(1,0,0,1,-964,0)">
                <path d="M861,185C861,186.657 859.657,188 858,188C856.343,188 855,186.657 855,185C855,183.343 856.343,182 858,182C859.657,182 861,183.343 861,185" style="fill:rgb(104,102,100);"/>
            </g>
            <g id="Fill-1861" transform="matrix(1,0,0,1,-964,0)">
                <path d="M861,195C861,196.657 859.657,198 858,198C856.343,198 855,196.657 855,195C855,193.343 856.343,192 858,192C859.657,192 861,193.343 861,195" style="fill:rgb(104,102,100);"/>
            </g>
            <g id="Fill-1871" transform="matrix(1,0,0,1,-964,0)">
                <path d="M873,166C873,167.657 871.657,169 870,169C868.343,169 867,167.657 867,166C867,164.343 868.343,163 870,163C871.657,163 873,164.343 873,166" style="fill:rgb(104,102,100);"/>
            </g>
            <g id="Fill-1881" transform="matrix(1,0,0,1,-964,0)">
                <path d="M873,156C873,157.657 871.657,159 870,159C868.343,159 867,157.657 867,156C867,154.343 868.343,153 870,153C871.657,153 873,154.343 873,156" style="fill:rgb(104,102,100);"/>
            </g>
            <g id="Fill-1891" transform="matrix(1,0,0,1,-964,0)">
                <path d="M873,176C873,177.657 871.657,179 870,179C868.343,179 867,177.657 867,176C867,174.343 868.343,173 870,173C871.657,173 873,174.343 873,176" style="fill:rgb(104,102,100);"/>
            </g>
            <g id="Fill-1901" transform="matrix(1,0,0,1,-964,0)">
                <path d="M873,185C873,186.657 871.657,188 870,188C868.343,188 867,186.657 867,185C867,183.343 868.343,182 870,182C871.657,182 873,183.343 873,185" style="fill:rgb(104,102,100);"/>
            </g>
            <g id="Fill-1911" transform="matrix(1,0,0,1,-964,0)">
                <path d="M873,195C873,196.657 871.657,198 870,198C868.343,198 867,196.657 867,195C867,193.343 868.343,192 870,192C871.657,192 873,193.343 873,195" style="fill:rgb(104,102,100);"/>
            </g>
            <g id="Fill-1921" transform="matrix(1,0,0,1,-964,0)">
                <path d="M873,204C873,205.657 871.657,207 870,207C868.343,207 867,205.657 867,204C867,202.343 868.343,201 870,201C871.657,201 873,202.343 873,204" style="fill:rgb(104,102,100);"/>
            </g>
            <g id="Fill-1931" transform="matrix(1,0,0,1,-964,0)">
                <path d="M885,166C885,167.657 883.657,169 882,169C880.343,169 879,167.657 879,166C879,164.343 880.343,163 882,163C883.657,163 885,164.343 885,166" style="fill:rgb(104,102,100);"/>
            </g>
            <g id="Fill-1941" transform="matrix(1,0,0,1,-964,0)">
                <path d="M885,176C885,177.657 883.657,179 882,179C880.343,179 879,177.657 879,176C879,174.343 880.343,173 882,173C883.657,173 885,174.343 885,176" style="fill:rgb(104,102,100);"/>
            </g>
            <g id="Fill-1951" transform="matrix(1,0,0,1,-964,0)">
                <path d="M885,185C885,186.657 883.657,188 882,188C880.343,188 879,186.657 879,185C879,183.343 880.343,182 882,182C883.657,182 885,183.343 885,185" style="fill:rgb(104,102,100);"/>
            </g>
            <g id="Fill-1961" transform="matrix(1,0,0,1,-964,0)">
                <path d="M885,195C885,196.657 883.657,198 882,198C880.343,198 879,196.657 879,195C879,193.343 880.343,192 882,192C883.657,192 885,193.343 885,195" style="fill:rgb(104,102,100);"/>
            </g>
            <g id="Fill-1971" transform="matrix(1,0,0,1,-964,0)">
                <path d="M898,166C898,167.657 896.657,169 895,169C893.343,169 892,167.657 892,166C892,164.343 893.343,163 895,163C896.657,163 898,164.343 898,166" style="fill:rgb(104,102,100);"/>
            </g>
            <g id="Fill-1981" transform="matrix(1,0,0,1,-964,0)">
                <path d="M898,155C898,156.657 896.657,158 895,158C893.343,158 892,156.657 892,155C892,153.343 893.343,152 895,152C896.657,152 898,153.343 898,155" style="fill:rgb(104,102,100);"/>
            </g>
            <g id="Fill-1991" transform="matrix(1,0,0,1,-964,0)">
                <path d="M898,176C898,177.657 896.657,179 895,179C893.343,179 892,177.657 892,176C892,174.343 893.343,173 895,173C896.657,173 898,174.343 898,176" style="fill:rgb(104,102,100);"/>
            </g>
            <g id="Fill-2001" transform="matrix(1,0,0,1,-964,0)">
                <path d="M898,185C898,186.657 896.657,188 895,188C893.343,188 892,186.657 892,185C892,183.343 893.343,182 895,182C896.657,182 898,183.343 898,185" style="fill:rgb(104,102,100);"/>
            </g>
            <g id="Fill-2011" transform="matrix(1,0,0,1,-964,0)">
                <path d="M910,166C910,167.657 908.657,169 907,169C905.343,169 904,167.657 904,166C904,164.343 905.343,163 907,163C908.657,163 910,164.343 910,166" style="fill:rgb(104,102,100);"/>
            </g>
            <g id="Fill-2021" transform="matrix(1,0,0,1,-964,0)">
                <path d="M910,176C910,177.657 908.657,179 907,179C905.343,179 904,177.657 904,176C904,174.343 905.343,173 907,173C908.657,173 910,174.343 910,176" style="fill:rgb(104,102,100);"/>
            </g>
            <g id="Fill-2031" transform="matrix(1,0,0,1,-964,0)">
                <path d="M931,124L797,124L797,224L931,224L931,124ZM928.32,221.333L799.68,221.333L799.68,126.667L928.32,126.667L928.32,221.333Z" style="fill:rgb(104,102,100);"/>
            </g>
            <g id="Fill-2041" transform="matrix(1,0,0,1,-964,0)">
                <rect x="731" y="15" width="51" height="2" style="fill:rgb(104,102,100);"/>
            </g>
            <g id="Fill-2051" transform="matrix(1,0,0,1,-964,0)">
                <rect x="731" y="80" width="104" height="2" style="fill:rgb(104,102,100);"/>
            </g>
            <g id="Fill-2061" transform="matrix(1,0,0,1,-964,0)">
                <rect x="731" y="33" width="2" height="50" style="fill:rgb(104,102,100);"/>
            </g>
            <g id="Fill-2071" transform="matrix(1,0,0,1,-964,0)">
                <rect x="731" y="22" width="30" height="2" style="fill:rgb(104,102,100);"/>
            </g>
            <g id="Fill-2081" transform="matrix(1,0,0,1,-964,0)">
                <path d="M778,52C778,53.657 776.657,55 775,55C773.343,55 772,53.657 772,52C772,50.343 773.343,49 775,49C776.657,49 778,50.343 778,52" style="fill:rgb(104,102,100);"/>
            </g>
            <g id="Fill-2091" transform="matrix(1,0,0,1,-964,0)">
                <path d="M777,41C777,42.657 775.657,44 774,44C772.343,44 771,42.657 771,41C771,39.343 772.343,38 774,38C775.657,38 777,39.343 777,41" style="fill:rgb(104,102,100);"/>
            </g>
            <g id="Fill-2101" transform="matrix(1,0,0,1,-964,0)">
                <path d="M793,47C793,48.657 791.657,50 790,50C788.343,50 787,48.657 787,47C787,45.343 788.343,44 790,44C791.657,44 793,45.343 793,47" style="fill:rgb(104,102,100);"/>
            </g>
            <g id="Fill-2111" transform="matrix(1,0,0,1,-964,0)">
                <path d="M794,64C794,65.657 792.657,67 791,67C789.343,67 788,65.657 788,64C788,62.343 789.343,61 791,61C792.657,61 794,62.343 794,64" style="fill:rgb(104,102,100);"/>
            </g>
            <g id="Fill-2121" transform="matrix(1,0,0,1,-964,0)">
                <path d="M802,33C802,34.657 800.657,36 799,36C797.343,36 796,34.657 796,33C796,31.343 797.343,30 799,30C800.657,30 802,31.343 802,33" style="fill:rgb(104,102,100);"/>
            </g>
            <g id="Fill-2131" transform="matrix(1,0,0,1,-964,0)">
                <path d="M810,52C810,53.657 808.657,55 807,55C805.343,55 804,53.657 804,52C804,50.343 805.343,49 807,49C808.657,49 810,50.343 810,52" style="fill:rgb(104,102,100);"/>
            </g>
            <g id="Fill-2141" transform="matrix(1,0,0,1,-964,0)">
                <path d="M814,66C814,67.657 812.657,69 811,69C809.343,69 808,67.657 808,66C808,64.343 809.343,63 811,63C812.657,63 814,64.343 814,66" style="fill:rgb(104,102,100);"/>
            </g>
            <g id="Fill-2151" transform="matrix(1,0,0,1,-964,0)">
                <path d="M818,41C818,42.657 816.657,44 815,44C813.343,44 812,42.657 812,41C812,39.343 813.343,38 815,38C816.657,38 818,39.343 818,41" style="fill:rgb(104,102,100);"/>
            </g>
            <g id="Fill-2161" transform="matrix(1,0,0,1,-964,0)">
                <path d="M759,50C759,51.657 757.657,53 756,53C754.343,53 753,51.657 753,50C753,48.343 754.343,47 756,47C757.657,47 759,48.343 759,50" style="fill:rgb(104,102,100);"/>
            </g>
            <g id="Fill-2171" transform="matrix(1,0,0,1,-964,0)">
                <path d="M768,63C768,64.657 766.657,66 765,66C763.343,66 762,64.657 762,63C762,61.343 763.343,60 765,60C766.657,60 768,61.343 768,63" style="fill:rgb(104,102,100);"/>
            </g>
            <g id="Fill-2181" transform="matrix(1,0,0,1,-964,0)">
                <path d="M748,63C748,64.657 746.657,66 745,66C743.343,66 742,64.657 742,63C742,61.343 743.343,60 745,60C746.657,60 748,61.343 748,63" style="fill:rgb(104,102,100);"/>
            </g>
            <g id="Fill-2191" transform="matrix(1,0,0,1,-964,0)">
                <path d="M827,54C827,55.657 825.657,57 824,57C822.343,57 821,55.657 821,54C821,52.343 822.343,51 824,51C825.657,51 827,52.343 827,54" style="fill:rgb(104,102,100);"/>
            </g>
            <g id="Fill-2201" transform="matrix(1,0,0,1,-964,0)">
                <path d="M743,48C743,49.657 741.657,51 740,51C738.343,51 737,49.657 737,48C737,46.343 738.343,45 740,45C741.657,45 743,46.343 743,48" style="fill:rgb(104,102,100);"/>
            </g>
            <g id="Fill-2211" transform="matrix(1,0,0,1,-964,0)">
                <path d="M845,0L711,0L711,100L845,100L845,0ZM842.32,97.333L713.68,97.333L713.68,2.667L842.32,2.667L842.32,97.333Z" style="fill:rgb(104,102,100);"/>
            </g>
            <g id="Fill-2221" transform="matrix(1,0,0,1,-964,0)">
                <rect x="656" y="142" width="36" height="2" style="fill:rgb(104,102,100);"/>
            </g>
            <g id="Fill-2231" transform="matrix(1,0,0,1,-964,0)">
                <rect x="656" y="148" width="22" height="2" style="fill:rgb(104,102,100);"/>
            </g>
            <g id="Fill-2241" transform="matrix(1,0,0,1,-964,0)">
                <rect x="656" y="162" width="63" height="6" style="fill:rgb(104,102,100);"/>
            </g>
            <g id="Fill-2251" transform="matrix(1,0,0,1,-964,0)">
                <rect x="656" y="172" width="95" height="6" style="fill:rgb(104,102,100);"/>
            </g>
            <g id="Fill-2261" transform="matrix(1,0,0,1,-964,0)">
                <rect x="656" y="182" width="77" height="6" style="fill:rgb(104,102,100);"/>
            </g>
            <g id="Fill-2271" transform="matrix(1,0,0,1,-964,0)">
                <rect x="656" y="192" width="59" height="6" style="fill:rgb(104,102,100);"/>
            </g>
            <g id="Fill-2281" transform="matrix(1,0,0,1,-964,0)">
                <rect x="656" y="202" width="72" height="6" style="fill:rgb(104,102,100);"/>
            </g>
            <g id="Fill-2291" transform="matrix(1,0,0,1,-964,0)">
                <path d="M772,122L638,122L638,222L772,222L772,122ZM769.32,219.333L640.68,219.333L640.68,124.667L769.32,124.667L769.32,219.333Z" style="fill:rgb(104,102,100);"/>
            </g>
            <g id="Fill-2301" transform="matrix(1,0,0,1,-964,0)">
                <rect x="500" y="142" width="51" height="2" style="fill:rgb(104,102,100);"/>
            </g>
            <g id="Fill-2311" transform="matrix(1,0,0,1,-964,0)">
                <rect x="500" y="148" width="30" height="2" style="fill:rgb(104,102,100);"/>
            </g>
            <g id="Fill-2321" transform="matrix(1,0,0,1,-964,0)">
                <rect x="500" y="179" width="6" height="26" style="fill:rgb(104,102,100);"/>
            </g>
            <g id="Fill-2331" transform="matrix(1,0,0,1,-964,0)">
                <rect x="510" y="185" width="6" height="20" style="fill:rgb(104,102,100);"/>
            </g>
            <g id="Fill-2341" transform="matrix(1,0,0,1,-964,0)">
                <rect x="520" y="168" width="6" height="37" style="fill:rgb(104,102,100);"/>
            </g>
            <g id="Fill-2351" transform="matrix(1,0,0,1,-964,0)">
                <rect x="581" y="168" width="6" height="37" style="fill:rgb(104,102,100);"/>
            </g>
            <g id="Fill-2361" transform="matrix(1,0,0,1,-964,0)">
                <rect x="570" y="155" width="6" height="51" style="fill:rgb(104,102,100);"/>
            </g>
            <g id="Fill-2371" transform="matrix(1,0,0,1,-964,0)">
                <rect x="560" y="168" width="6" height="37" style="fill:rgb(104,102,100);"/>
            </g>
            <g id="Fill-2381" transform="matrix(1,0,0,1,-964,0)">
                <rect x="530" y="175" width="6" height="30" style="fill:rgb(104,102,100);"/>
            </g>
            <g id="Fill-2391" transform="matrix(1,0,0,1,-964,0)">
                <rect x="550" y="175" width="6" height="30" style="fill:rgb(104,102,100);"/>
            </g>
            <g id="Fill-2401" transform="matrix(1,0,0,1,-964,0)">
                <rect x="590" y="175" width="6" height="30" style="fill:rgb(104,102,100);"/>
            </g>
            <g id="Fill-2411" transform="matrix(1,0,0,1,-964,0)">
                <rect x="540" y="182" width="6" height="23" style="fill:rgb(104,102,100);"/>
            </g>
            <g id="Fill-2421" transform="matrix(1,0,0,1,-964,0)">
                <path d="M614,122L480,122L480,222L614,222L614,122ZM611.32,219.333L482.68,219.333L482.68,124.667L611.32,124.667L611.32,219.333Z" style="fill:rgb(104,102,100);"/>
            </g>
            <g id="Fill-2431" transform="matrix(1,0,0,1,-964,0)">
                <path d="M995,244L861,244L861,344L995,344L995,244ZM992.32,341.333L863.68,341.333L863.68,246.667L992.32,246.667L992.32,341.333Z" style="fill:rgb(104,102,100);"/>
            </g>
            <g id="Fill-2441" transform="matrix(1,0,0,1,-964,0)">
                <rect x="881" y="263" width="51" height="2" style="fill:rgb(104,102,100);"/>
            </g>
            <g id="Fill-2451" transform="matrix(1,0,0,1,-964,0)">
                <rect x="881" y="270" width="30" height="2" style="fill:rgb(104,102,100);"/>
            </g>
            <g id="Fill-246" transform="matrix(1,0,0,1,-964,0)">
                <rect x="917" y="297" width="25" height="30" style="fill:rgb(104,102,100);"/>
            </g>
            <g id="Fill-2471" transform="matrix(1,0,0,1,-964,0)">
                <rect x="881" y="282" width="25" height="44" style="fill:rgb(104,102,100);"/>
            </g>
            <g id="Fill-2491" transform="matrix(1,0,0,1,-964,0)">
                <path d="M1005,1L871,1L871,101L1005,101L1005,1ZM1002.32,98.333L873.68,98.333L873.68,3.667L1002.32,3.667L1002.32,98.333Z" style="fill:rgb(104,102,100);"/>
            </g>
            <g id="Fill-2501" transform="matrix(1,0,0,1,-964,0)">
                <rect x="891" y="22" width="36" height="2" style="fill:rgb(104,102,100);"/>
            </g>
            <g id="Fill-2511" transform="matrix(1,0,0,1,-964,0)">
                <rect x="891" y="27" width="22" height="2" style="fill:rgb(104,102,100);"/>
            </g>
            <g id="Fill-2521" transform="matrix(1,0,0,1,-964,0)">
                <rect x="891" y="41" width="12" height="6" style="fill:rgb(104,102,100);"/>
            </g>
            <g id="Fill-253" transform="matrix(1,0,0,1,-964,0)">
                <rect x="905" y="41" width="18" height="6" style="fill:rgb(104,102,100);"/>
            </g>
            <g id="Fill-254" transform="matrix(1,0,0,1,-964,0)">
                <rect x="925" y="41" width="8" height="6" style="fill:rgb(104,102,100);"/>
            </g>
            <g id="Fill-255" transform="matrix(1,0,0,1,-964,0)">
                <rect x="934" y="41" width="19" height="6" style="fill:rgb(104,102,100);"/>
            </g>
            <g id="Fill-256" transform="matrix(1,0,0,1,-964,0)">
                <rect x="955" y="41" width="38" height="6" style="fill:rgb(104,102,100);"/>
            </g>
            <g id="Fill-2571" transform="matrix(1,0,0,1,-964,0)">
                <rect x="891" y="51" width="10" height="6" style="fill:rgb(104,102,100);"/>
            </g>
            <g id="Fill-2581" transform="matrix(1,0,0,1,-964,0)">
                <rect x="902" y="51" width="14" height="6" style="fill:rgb(104,102,100);"/>
            </g>
            <g id="Fill-259" transform="matrix(1,0,0,1,-964,0)">
                <rect x="918" y="51" width="10" height="6" style="fill:rgb(104,102,100);"/>
            </g>
            <g id="Fill-260" transform="matrix(1,0,0,1,-964,0)">
                <rect x="930" y="51" width="29" height="6" style="fill:rgb(104,102,100);"/>
            </g>
            <g id="Fill-2611" transform="matrix(1,0,0,1,-964,0)">
                <rect x="891" y="61" width="7" height="6" style="fill:rgb(104,102,100);"/>
            </g>
            <g id="Fill-2621" transform="matrix(1,0,0,1,-964,0)">
                <rect x="900" y="61" width="10" height="6" style="fill:rgb(104,102,100);"/>
            </g>
            <g id="Fill-263" transform="matrix(1,0,0,1,-964,0)">
                <rect x="912" y="61" width="25" height="6" style="fill:rgb(104,102,100);"/>
            </g>
            <g id="Fill-2641" transform="matrix(1,0,0,1,-964,0)">
                <rect x="891" y="71" width="6" height="6" style="fill:rgb(104,102,100);"/>
            </g>
            <g id="Fill-2651" transform="matrix(1,0,0,1,-964,0)">
                <rect x="898" y="71" width="8" height="6" style="fill:rgb(104,102,100);"/>
            </g>
            <g id="Fill-266" transform="matrix(1,0,0,1,-964,0)">
                <rect x="908" y="71" width="18" height="6" style="fill:rgb(104,102,100);"/>
            </g>
            <g id="Fill-2671" transform="matrix(1,0,0,1,-964,0)">
                <rect x="891" y="82" width="5" height="6" style="fill:rgb(104,102,100);"/>
            </g>
            <g id="Fill-2681" transform="matrix(1,0,0,1,-964,0)">
                <rect x="898" y="82" width="8" height="6" style="fill:rgb(104,102,100);"/>
            </g>
            <g id="Fill-269" transform="matrix(1,0,0,1,-964,0)">
                <rect x="906" y="82" width="15" height="6" style="fill:rgb(104,102,100);"/>
            </g>
            <g id="Fill-2701" transform="matrix(1,0,0,1,-964,0)">
                <rect x="723" y="289" width="14" height="2" style="fill:rgb(104,102,100);"/>
            </g>
            <g id="Fill-2711" transform="matrix(1,0,0,1,-964,0)">
                <rect x="803" y="288" width="14" height="2" style="fill:rgb(104,102,100);"/>
            </g>
            <g id="Fill-2731" transform="matrix(1,0,0,1,-964,0)">
                <rect x="723" y="260" width="51" height="2" style="fill:rgb(104,102,100);"/>
            </g>
            <g id="Fill-2741" transform="matrix(1,0,0,1,-964,0)">
                <rect x="723" y="266" width="30" height="2" style="fill:rgb(104,102,100);"/>
            </g>
            <g id="Fill-2751" transform="matrix(1,0,0,1,-964,0)">
                <path d="M837,245L703,245L703,345L837,345L837,245ZM834.32,342.333L705.68,342.333L705.68,247.667L834.32,247.667L834.32,342.333Z" style="fill:rgb(104,102,100);"/>
            </g>
            <g id="Fill-2761" transform="matrix(1,0,0,1,-964,0)">
                <path d="M771,279L771,298L790,298C790,287.507 781.493,279 771,279" style="fill:rgb(104,102,100);"/>
            </g>
            <g id="Fill-2781" transform="matrix(1,0,0,1,-964,0)">
                <path d="M767.92,301.383L767.92,280C756.346,280.123 747,289.697 747,301.497C747,313.373 756.467,323 768.143,323C773.936,323 779.182,320.63 783,316.793L767.92,301.383Z" style="fill:rgb(104,102,100);"/>
            </g>
            <g id="Fill-2791" transform="matrix(1,0,0,1,-964,0)">
                <path d="M583.609,301L592,294.238C591.276,293.657 590.694,292.889 590.319,292L582,298.703C582.705,299.308 583.262,300.097 583.609,301" style="fill:rgb(104,102,100);"/>
            </g>
            <g id="Fill-2801" transform="matrix(1,0,0,1,-964,0)">
                <path d="M601.542,290C601.544,290.061 601.551,290.121 601.551,290.183C601.551,291.003 601.349,291.775 601,292.46L607.335,294C607.346,293.116 607.587,292.288 608,291.569L601.542,290Z" style="fill:rgb(104,102,100);"/>
            </g>
            <g id="Fill-2811" transform="matrix(1,0,0,1,-964,0)">
                <path d="M617.603,291L626,284.149C625.297,283.592 624.731,282.855 624.366,282L616,288.825C616.694,289.394 617.251,290.138 617.603,291" style="fill:rgb(104,102,100);"/>
            </g>
            <g id="Fill-2821" transform="matrix(1,0,0,1,-964,0)">
                <path d="M634.432,282C634.171,282.885 633.673,283.678 633,284.318L641.577,289C641.834,288.114 642.329,287.318 643,286.677L634.432,282Z" style="fill:rgb(104,102,100);"/>
            </g>
            <g id="Fill-2831" transform="matrix(1,0,0,1,-964,0)">
                <path d="M650.987,287L661,276.8C660.183,276.375 659.491,275.752 658.988,275L649,285.174C649.812,285.609 650.494,286.241 650.987,287" style="fill:rgb(104,102,100);"/>
            </g>
            <g id="Fill-2891" transform="matrix(1,0,0,1,-964,0)">
                <rect x="565" y="258" width="51" height="2" style="fill:rgb(104,102,100);"/>
            </g>
            <g id="Fill-2901" transform="matrix(1,0,0,1,-964,0)">
                <rect x="565" y="265" width="30" height="2" style="fill:rgb(104,102,100);"/>
            </g>
            <g id="Fill-2911" transform="matrix(1,0,0,1,-964,0)">
                <path d="M679,243L545,243L545,343L679,343L679,243ZM676.32,340.333L547.68,340.333L547.68,245.667L676.32,245.667L676.32,340.333Z" style="fill:rgb(104,102,100);"/>
            </g>
            <g id="Fill-3021" transform="matrix(1,0,0,1,-964,0)">
                <path d="M579,298C580.657,298 582,299.343 582,301C582,302.657 580.657,304 579,304C577.343,304 576,302.657 576,301C576,299.343 577.343,298 579,298" style="fill:rgb(104,102,100);"/>
            </g>
            <g id="Fill-3031" transform="matrix(1,0,0,1,-964,0)">
                <path d="M596,286C597.657,286 599,287.343 599,289C599,290.657 597.657,292 596,292C594.343,292 593,290.657 593,289C593,287.343 594.343,286 596,286" style="fill:rgb(104,102,100);"/>
            </g>
            <g id="Fill-3041" transform="matrix(1,0,0,1,-964,0)">
                <path d="M613,290C614.657,290 616,291.343 616,293C616,294.657 614.657,296 613,296C611.343,296 610,294.657 610,293C610,291.343 611.343,290 613,290" style="fill:rgb(104,102,100);"/>
            </g>
            <g id="Fill-3051" transform="matrix(1,0,0,1,-964,0)">
                <path d="M629,277C630.657,277 632,278.343 632,280C632,281.657 630.657,283 629,283C627.343,283 626,281.657 626,280C626,278.343 627.343,277 629,277" style="fill:rgb(104,102,100);"/>
            </g>
            <g id="Fill-3061" transform="matrix(1,0,0,1,-964,0)">
                <path d="M646,287C647.657,287 649,288.343 649,290C649,291.657 647.657,293 646,293C644.343,293 643,291.657 643,290C643,288.343 644.343,287 646,287" style="fill:rgb(104,102,100);"/>
            </g>
            <g id="Fill-3071" transform="matrix(1,0,0,1,-964,0)">
                <path d="M663,269C664.657,269 666,270.343 666,272C666,273.657 664.657,275 663,275C661.343,275 660,273.657 660,272C660,270.343 661.343,269 663,269" style="fill:rgb(104,102,100);"/>
            </g>
        </g>
    </g>
</svg>
