<?xml version="1.0" encoding="UTF-8" standalone="no"?>
<svg width="467px" height="233px" viewBox="0 0 467 233" version="1.1" xmlns="http://www.w3.org/2000/svg" xmlns:xlink="http://www.w3.org/1999/xlink" xmlns:sketch="http://www.bohemiancoding.com/sketch/ns">
    <!-- Generator: sketchtool 3.4 (356) - http://www.bohemiancoding.com/sketch -->
    <title>stars-circles-graphic@0.5x</title>
    <desc>Created with sketchtool.</desc>
    <defs></defs>
    <g id="WEBSITE" stroke="none" stroke-width="1" fill="none" fill-rule="evenodd" sketch:type="MSPage">
        <g id="Desktop-v02" sketch:type="MSArtboardGroup" transform="translate(-28.000000, -1809.000000)" fill="#DCF9EA">
            <path d="M307.465048,1994.10787 C301.450891,1994.95894 297.259859,2000.52003 298.109392,2006.53579 C298.957308,2012.54884 304.525392,2016.7384 310.537932,2015.89111 C316.552628,2015.04219 320.738805,2009.47571 319.89089,2003.46481 C319.119568,1997.96951 314.408568,1994 309.015244,1994 C308.503906,1994 307.988792,1994.03614 307.465048,1994.10787 L307.465048,1994.10787 Z M33.5929828,1853.06374 C30.0391626,1853.56665 27.5626439,1856.85275 28.064641,1860.40751 C28.5656818,1863.96068 31.8559137,1866.43633 35.4087778,1865.93565 C38.9629167,1865.43402 41.4365668,1862.14474 40.935526,1858.59284 C40.4797446,1855.34562 37.6959719,1853 34.5090079,1853 C34.2068535,1853 33.902468,1853.02135 33.5929828,1853.06374 L33.5929828,1853.06374 Z M368.23639,1977.00516 L327,1976.02342 L362.190484,1998.64253 L361.255218,2042 L382.766341,2004.99771 L424,2005.97945 L388.808969,1983.36091 L389.743689,1940 L368.23639,1977.00516 L368.23639,1977.00516 Z M144.004697,1824.60021 L127,1824.18634 L141.51154,1833.72185 L141.125863,1852 L149.996429,1836.401 L167,1836.81487 L152.488235,1827.2796 L152.873686,1809 L144.004697,1824.60021 L144.004697,1824.60021 Z M163.073763,1957.56461 L149,1970.51725 L167.232197,1966.89523 L179.304302,1982 L175.928893,1962.43482 L190,1949.48104 L171.768334,1953.10135 L159.694636,1938 L163.073763,1957.56461 L163.073763,1957.56461 Z M113.336196,1895.15438 C104.858322,1896.34861 98.9580429,1904.19077 100.153985,1912.6639 C101.349367,1921.13758 109.188996,1927.04158 117.665193,1925.84623 C126.137474,1924.64921 132.039431,1916.81208 130.846845,1908.33392 C129.754947,1900.593 123.118532,1895 115.519434,1895 C114.79896,1895 114.068977,1895.05202 113.336196,1895.15438 L113.336196,1895.15438 Z M438.754997,1949.1245 C431.918001,1950.08759 427.159712,1956.41192 428.124181,1963.24508 C429.0882,1970.07869 435.410481,1974.83998 442.246123,1973.876 C449.078608,1972.91066 453.838251,1966.59039 452.876488,1959.75316 C451.995925,1953.51048 446.643977,1949 440.515672,1949 C439.934645,1949 439.345949,1949.04195 438.754997,1949.1245 L438.754997,1949.1245 Z M193.464287,1867.11003 C187.448335,1867.95736 183.260793,1873.52189 184.109196,1879.53625 C184.95706,1885.55007 190.522652,1889.73924 196.536986,1888.89084 C202.55078,1888.04297 206.736705,1882.47897 205.891537,1876.4657 C205.118104,1870.97128 200.407388,1867 195.01439,1867 C194.503083,1867 193.98746,1867.03614 193.464287,1867.11003 L193.464287,1867.11003 Z M42,1926.74342 L55.0569318,1926.90067 L61.4833684,1939 L61.6330918,1925.09978 L73,1918.25829 L59.9442757,1918.09933 L53.5178391,1906 L53.3665057,1919.90193 L42,1926.74342 Z M464,1997.74342 L477.056932,1997.90067 L483.483368,2010 L483.633092,1996.09978 L495,1989.25829 L481.944276,1989.09933 L475.517839,1977 L475.366506,1990.90193 L464,1997.74342 Z M246.57406,1914.81596 L208,1927.63647 L247.420568,1937.09281 L259.496919,1978 L268.420552,1936.1869 L307,1923.36696 L267.574582,1913.91176 L255.500386,1873 L246.57406,1914.81596 L246.57406,1914.81596 Z M344.931297,1887.23218 C332.896914,1889.04406 324.523223,1900.93167 326.217918,1913.78024 C327.915849,1926.63054 339.0387,1935.5788 351.070925,1933.76691 C363.099915,1931.95386 371.476842,1920.06799 369.782147,1907.21654 C368.232003,1895.48275 358.814634,1887.0023 348.02781,1887 C347.007865,1887 345.974975,1887.07662 344.931297,1887.23218 L344.931297,1887.23218 Z M100.463946,1848.10948 C94.4507118,1848.9589 90.2587058,1854.52084 91.1097267,1860.53796 C91.9575118,1866.55022 97.5242023,1870.73961 103.5342,1869.89073 C109.549052,1869.04347 113.738362,1863.47991 112.891116,1857.46441 C112.116137,1851.97042 107.406939,1848 102.014443,1848 C101.501566,1848 100.983295,1848.03559 100.463946,1848.10948 L100.463946,1848.10948 Z" id="stars-circles-graphic" sketch:type="MSShapeGroup" transform="translate(261.500000, 1925.500000) scale(-1, -1) translate(-261.500000, -1925.500000) "></path>
        </g>
    </g>
</svg>