<?xml version="1.0" encoding="UTF-8" standalone="no"?>
<svg width="138px" height="59px" viewBox="0 0 138 59" version="1.1" xmlns="http://www.w3.org/2000/svg" xmlns:xlink="http://www.w3.org/1999/xlink" xmlns:sketch="http://www.bohemiancoding.com/sketch/ns">
    <!-- Generator: sketchtool 3.4 (356) - http://www.bohemiancoding.com/sketch -->
    <title>Logo@0.5x</title>
    <desc>Created with sketchtool.</desc>
    <defs></defs>
    <g id="WEBSITE" stroke="none" stroke-width="1" fill="none" fill-rule="evenodd" sketch:type="MSPage">
        <g id="Desktop-v02" sketch:type="MSArtboardGroup" transform="translate(-50.000000, -33.000000)">
            <g id="Logo" sketch:type="MSLayerGroup" transform="translate(50.000000, 33.000000)">
                <path d="M43.5000883,21 C36.0561892,21 30,27.056105 30,34.5004119 C30,41.9440127 36.0561892,48 43.5000883,48 C50.9438697,48 57,41.9440127 57,34.5004119 C57,27.056105 50.9438697,21 43.5000883,21 M43.5000883,41.999915 C39.357789,41.999915 36.00017,38.6421859 36.00017,34.5004119 C36.00017,30.3578141 39.357789,26.9997908 43.5000883,26.9997908 C47.6421521,26.9997908 50.9997712,30.3578141 50.9997712,34.5004119 C50.9997712,38.6421859 47.6421521,41.999915 43.5000883,41.999915" id="Fill-1" fill="#FFFFFF" sketch:type="MSShapeGroup"></path>
                <path d="M13.5000294,21 C6.05613031,21 0,26.9269666 0,34.2125335 C0,34.6077721 0.0256558343,34.9973669 0.0606089665,35.3848309 C0.0210660291,35.5751075 0,35.7723524 0,35.9735711 L0,54.0639007 C0,55.6856862 1.34345953,57 2.99990847,57 C4.656887,57 6.00016999,55.6856862 6.00016999,54.0639007 L6.00016999,45.1901806 C8.14708081,46.5997479 10.7265513,47.4242607 13.5000294,47.4242607 C20.9438108,47.4242607 27,41.4974093 27,34.2125335 C27,26.9269666 20.9438108,21 13.5000294,21 M13.5000294,41.5521195 C9.35778905,41.5521195 6.00016999,38.2659896 6.00016999,34.2125335 C6.00016999,30.1582711 9.35778905,26.8718532 13.5000294,26.8718532 C17.6421521,26.8718532 20.9997712,30.1582711 20.9997712,34.2125335 C20.9997712,38.2659896 17.6421521,41.5521195 13.5000294,41.5521195" id="Fill-2" fill="#FFFFFF" sketch:type="MSShapeGroup"></path>
                <path d="M73.4998529,21 C66.0563596,21 60,26.9269666 60,34.2125335 C60,34.6077721 60.0258326,34.9973669 60.0604918,35.3848309 C60.0209485,35.5751075 60,35.7723524 60,35.9735711 L60,54.0639007 C60,55.6856862 61.3433536,57 62.9998169,57 C64.6570453,57 65.9998104,55.6856862 65.9998104,54.0639007 L65.9998104,45.1901806 C68.1469753,46.5997479 70.7264095,47.4242607 73.4998529,47.4242607 C80.9438757,47.4242607 87,41.4974093 87,34.2125335 C87,26.9269666 80.9438757,21 73.4998529,21 M73.4998529,41.5521195 C69.3580472,41.5521195 65.9998104,38.2659896 65.9998104,34.2125335 C65.9998104,30.1582711 69.3580472,26.8718532 73.4998529,26.8718532 C77.6423059,26.8718532 80.9998365,30.1582711 80.9998365,34.2125335 C80.9998365,38.2659896 77.6423059,41.5521195 73.4998529,41.5521195" id="Fill-3" fill="#FFFFFF" sketch:type="MSShapeGroup"></path>
                <path d="M135.000039,21.0002901 C133.343123,21.0002901 132.000196,22.3248783 132.000196,23.9586492 L132.000196,34.313254 C132.000196,38.3983196 128.642173,41.7095578 124.5,41.7095578 C120.358122,41.7095578 117.000157,38.3983196 117.000157,34.313254 L117.000392,34.313254 L117.000392,23.9584171 C117.000392,22.3248783 115.657053,21 114.000432,21 C112.343339,21 111.000471,22.3248783 111.000471,23.9584171 L111.000471,34.313254 L111,34.313254 C111,41.6544295 117.056411,47.6270303 124.5,47.6270303 C127.273472,47.6270303 129.853408,46.7957534 132.000196,45.3758804 L132.000196,45.6870942 C132.000196,49.7714634 128.642173,53.0830498 124.5,53.0830498 C124.5,53.0830498 120.989042,53.4226402 116.832747,50.9454062 C116.736067,50.8875505 116.626147,50.8402562 116.517346,50.7915692 C116.385477,50.7120684 116.250726,50.6380804 116.106559,50.5797024 C116.071135,50.5598562 116.031357,50.5456389 115.998169,50.5234135 L115.987519,50.5434338 C115.684886,50.436833 115.363424,50.368532 115.023779,50.368532 C113.435475,50.368532 112.147449,51.6385721 112.147449,53.2050865 C112.147449,54.3237269 112.810145,55.2816827 113.763527,55.743716 C118.659015,59.2343243 124.5,58.9896127 124.5,58.9896127 L124.5,59 C131.944236,59 138,53.0279795 138,45.6870942 L138,23.9586492 C138,22.3248783 136.656955,21.0002901 135.000039,21.0002901" id="Fill-4" fill="#FFFFFF" sketch:type="MSShapeGroup"></path>
                <path d="M93,21 C91.3429446,21 90,22.3431565 90,23.99983 L90,45.0001111 C90,46.6567258 91.3429446,48 93,48 C94.6570554,48 96,46.6567258 96,45.0001111 L96,23.99983 C96,22.3431565 94.6570554,21 93,21" id="Fill-5" fill="#FFFFFF" sketch:type="MSShapeGroup"></path>
                <path d="M103.999882,6 C102.343115,6 101,7.30183989 101,8.90785117 L101,44.0922059 C101,45.6984453 102.343115,47 103.999882,47 C105.657238,47 107,45.6984453 107,44.0922059 L107,8.90785117 C107,7.30183989 105.657238,6 103.999882,6" id="Fill-6" fill="#FFFFFF" sketch:type="MSShapeGroup"></path>
                <path d="M85.6204815,11.9846451 C84.9845229,12.0772092 84.5413482,12.6820434 84.6311809,13.3363272 C84.7208425,13.9903178 85.3096318,14.4459819 85.9454193,14.3538284 C86.5814349,14.2614989 87.0240963,13.6560781 86.9344347,13.0023222 C86.8528723,12.4046444 86.3547142,11.9729133 85.7844048,11.9729133 C85.7303341,11.9729133 85.6758641,11.9768434 85.6204815,11.9846451 L85.6204815,11.9846451 Z M92.1779845,10.3631897 L87.8726875,10.2629412 L91.54676,12.5726441 L91.4491132,17 L93.6949882,13.22159 L98,13.3218384 L94.3258705,11.0121942 L94.4234602,6.58448639 L92.1779845,10.3631897 L92.1779845,10.3631897 Z M68.6642286,6.3340706 L67.1531568,7.66715779 L69.1107115,7.29437908 L70.4068692,8.84896311 L70.0444584,6.83531279 L71.555245,5.50210828 L69.5977474,5.87471102 L68.3014185,4.32047893 L68.6642286,6.3340706 L68.6642286,6.3340706 Z M61.1170828,4.25671647 C60.2526354,4.38195369 59.6510129,5.20435458 59.7729572,6.09292295 C59.8948446,6.98154998 60.6942131,7.60069701 61.5584894,7.47534247 C62.4223664,7.34981195 63.0241601,6.52793899 62.9025579,5.63884269 C62.7912224,4.82705911 62.1145396,4.24052655 61.3396968,4.24052655 C61.2662336,4.24052655 61.1918008,4.24598185 61.1170828,4.25671647 L61.1170828,4.25671647 Z M74.2606071,2.28882026 C73.6244204,2.38097374 73.1815879,2.9861599 73.2713065,3.64026776 C73.3609681,4.29431697 73.9495293,4.74992236 74.5855449,4.65765156 C75.2215035,4.56543943 75.6641649,3.96031193 75.5747885,3.30632138 C75.4929979,2.70876091 74.9948399,2.2768538 74.4245305,2.2768538 C74.3704597,2.2768538 74.3159327,2.28078396 74.2606071,2.28882026 L74.2606071,2.28882026 Z M48.6107719,3.88481764 L47,4.82142783 L48.8503258,4.84295573 L49.7610299,6.499372 L49.7822475,4.59641144 L51.3930764,3.65980125 L49.5429218,3.63803872 L48.6322177,1.98162244 L48.6107719,3.88481764 L48.6107719,3.88481764 Z M79.3870607,5.48803009 L75.3039214,6.80381284 L79.4766653,7.77432801 L80.7549706,11.9726787 L81.6995544,7.6813533 L85.7832641,6.36562921 L81.6100069,5.39523136 L80.3319298,1.19641144 L79.3870607,5.48803009 L79.3870607,5.48803009 Z M89.6744181,1.1041993 C88.4018164,1.28868224 87.5163225,2.49905455 87.6955317,3.80727028 C87.875083,5.11566199 89.0512927,6.02675546 90.3236662,5.84227252 C91.5956974,5.65767227 92.4815335,4.44747593 92.3023244,3.13896691 C92.1384011,1.94425658 91.1425413,1.08079431 90.0018654,1.08055968 C89.8940091,1.08055968 89.784784,1.08836134 89.6744181,1.1041993 L89.6744181,1.1041993 Z M55.6642655,0.0119078017 C55.028307,0.104295918 54.5849611,0.709247438 54.6749649,1.36370726 C54.7646265,2.01763914 55.3533588,2.4733032 55.9889752,2.38097374 C56.6251048,2.28882026 57.0681655,1.68369276 56.9785609,1.02940892 C56.8965993,0.431848452 56.3985553,0 55.8282459,0 C55.774004,0 55.7191918,0.00387150202 55.6642655,0.0119078017 L55.6642655,0.0119078017 Z" id="Fill-7" fill="#98E0BA" sketch:type="MSShapeGroup"></path>
            </g>
        </g>
    </g>
</svg>